<?xml version="1.0" encoding="UTF-8" standalone="no"?>
<svg
   viewBox="0 0 3466.6667 2266.6667"
   height="2266.6667"
   width="3466.6667"
   xml:space="preserve"
   id="svg2"
   version="1.1"
   sodipodi:docname="cartoonQuiverBeeFlightpath.svg"
   inkscape:version="1.3.2 (091e20e, 2023-11-25, custom)"
   xmlns:inkscape="http://www.inkscape.org/namespaces/inkscape"
   xmlns:sodipodi="http://sodipodi.sourceforge.net/DTD/sodipodi-0.dtd"
   xmlns="http://www.w3.org/2000/svg"
   xmlns:svg="http://www.w3.org/2000/svg"
   xmlns:rdf="http://www.w3.org/1999/02/22-rdf-syntax-ns#"
   xmlns:cc="http://creativecommons.org/ns#"
   xmlns:dc="http://purl.org/dc/elements/1.1/"><sodipodi:namedview
     id="namedview1"
     pagecolor="#ffffff"
     bordercolor="#000000"
     borderopacity="0.25"
     inkscape:showpageshadow="2"
     inkscape:pageopacity="0.0"
     inkscape:pagecheckerboard="0"
     inkscape:deskcolor="#d1d1d1"
     showgrid="false"
     inkscape:zoom="0.34279411"
     inkscape:cx="1732.8186"
     inkscape:cy="1019.5625"
     inkscape:window-width="1920"
     inkscape:window-height="991"
     inkscape:window-x="-9"
     inkscape:window-y="-9"
     inkscape:window-maximized="1"
     inkscape:current-layer="svg2" /><metadata
     id="metadata8"><rdf:RDF><cc:Work
         rdf:about=""><dc:format>image/svg+xml</dc:format><dc:type
           rdf:resource="http://purl.org/dc/dcmitype/StillImage" /></cc:Work></rdf:RDF></metadata><defs
     id="defs6" /><g
     transform="matrix(1.3333333,0,0,-1.3333333,0,2266.6667)"
     id="g10"><g
       transform="scale(0.1)"
       id="g12"><g
         transform="scale(1.59509)"
         id="g14"><path
           id="path16"
           style="fill:#ffffff;fill-opacity:1;fill-rule:nonzero;stroke:none"
           d="M 16300,0 H 0 V 10657.7 H 16300 V 0" /></g><g
         transform="scale(1.23827)"
         id="g18"><path
           id="path20"
           style="fill:#d6e9ff;fill-opacity:1;fill-rule:nonzero;stroke:none"
           d="m 15853.7,7922.25 c -370.2,14.81 -614.4,151.05 -669.7,373.83 -46.2,186.14 55.8,408.9 232.2,507.14 61.3,34.01 126.7,51.22 194.5,51.22 131.6,0 265.8,-64.77 388.2,-187.31 l 7.6,-7.64 3.7,-10.17 c 12.8,-35.57 25.6,-66.27 38.9,-93.87 50.9,-105.42 119.2,-197.22 203.2,-272.92 l 47.7,-43.04 -54.5,-34.05 c -25.9,-16.16 -52.5,-33.5 -83.7,-54.55 l -30.7,-20.65 -194.7,167.06 -144.4,123.88 c -4.2,3.62 -8.7,4.37 -11.8,4.37 -3,0 -8.9,-0.81 -13.6,-6.27 -6.5,-7.62 -5.7,-19.07 1.9,-25.52 l 202.8,-173.91 128.9,-110.65 -47.8,-36.28 c -7.4,-5.59 -14.5,-11.2 -21.5,-16.82 -3.9,-3.14 -7.9,-6.3 -11.9,-9.43 l -23.6,-18.54 -89.3,42.44 -140.9,67.15 c -2.4,1.13 -5,1.73 -7.7,1.73 -5.5,0 -12.7,-2.69 -16.3,-10.27 -4.3,-9.07 -0.5,-19.87 8.4,-24.17 l 213.2,-101.46 -53.3,-48.56 c -4.2,-3.82 -8.1,-7.64 -12.1,-11.45 -2.8,-2.71 -5.6,-5.41 -8.5,-8.11 l -14.8,-13.99 -20.4,0.81" /></g><g
         transform="scale(1.29773)"
         id="g22"><path
           id="path24"
           style="fill:#d6e9ff;fill-opacity:1;fill-rule:nonzero;stroke:none"
           d="m 15600.2,7920.01 c -284.4,216.99 -358.8,604.66 -285.4,875.46 65.5,241.47 236.6,386.76 469.5,398.63 8.7,0.46 17.4,0.68 26,0.68 144.6,0 258.8,-62.49 339.4,-185.76 136.1,-208.2 150.3,-575.44 32.3,-836.06 l -7.8,-17.21 -17.6,-6.83 c -44.5,-17.23 -89.3,-35.38 -133.5,-53.98 l -60.3,-25.42 -30.1,520.08 c -0.5,9.13 -8,16.25 -17.1,16.25 l -1.1,-0.02 c -9.4,-0.56 -16.7,-8.7 -16.1,-18.13 l 30.8,-533.44 -28.8,-13.12 c -19.5,-8.84 -38.6,-17.75 -57.4,-26.68 l -43.6,-20.65 -167.4,396.55 c -2.8,6.57 -8.7,10.66 -15.5,10.66 -2.3,0 -4.7,-0.49 -7,-1.48 -8.9,-3.74 -13,-13.87 -9.3,-22.61 l 168.2,-398.55 -38.1,-19.62 c -25.2,-12.99 -51.2,-26.89 -79.7,-42.53 l -26.5,-14.46 -23.9,18.24" /></g><g
         transform="scale(1.25546)"
         id="g26"><path
           id="path28"
           style="fill:#fdd650;fill-opacity:1;fill-rule:nonzero;stroke:none"
           d="m 16264.2,5941.13 c -425.9,63.18 -711.5,294.44 -849,687.35 -137.4,392.81 -58.3,751.66 235.2,1066.56 l 81.2,-44.54 c -79.2,-307.08 -67.2,-600.91 36.8,-898.3 104,-297.58 277.9,-534.91 531.6,-725.6 l -35.8,-85.47" /></g><g
         transform="scale(1.33553)"
         id="g30"><path
           id="path32"
           style="fill:#fdd650;fill-opacity:1;fill-rule:nonzero;stroke:none"
           d="m 15708.7,5585.45 c -260.6,164.28 -549.1,534.1 -656.7,841.93 -107.7,307.86 -112.7,776.74 -11.6,1067.47 l 5.1,14.53 12.9,8.37 c 120,77.98 258.1,152.91 410.4,222.72 l 96.9,44.4 -35.9,-100.36 c -120.5,-337.4 -83.5,-811.18 12.5,-1085.64 96,-274.33 362.4,-667.8 667.1,-856.67 l 90.6,-56.13 -103.5,-25.66 c -161.9,-40.2 -316.6,-67.68 -459.5,-81.67 l -15.3,-1.51 -13,8.22" /></g><g
         transform="scale(1.4535)"
         id="g34"><path
           id="path36"
           style="fill:#fdd650;fill-opacity:1;fill-rule:nonzero;stroke:none"
           d="m 16121.1,5894.06 c -153.4,-239.63 -429.8,-430.68 -821.5,-567.66 -11.2,-3.93 -22.1,-7.43 -32.9,-10.87 -8,-2.62 -16,-5.16 -24.2,-7.92 l -16.7,-5.64 -15.6,8.12 c -162.1,84.21 -316.9,212.8 -447.7,371.79 -116.9,142.14 -210.7,304.58 -264.2,457.52 -53.6,153.29 -81.6,338.91 -78.7,522.81 3.1,205.5 44.1,402.41 118.4,569.39 l 7.2,16.03 16.4,5.98 c 7.7,2.75 15,5.57 22.5,8.39 10.8,4.13 22.1,8.4 34,12.6 102.1,35.77 205.1,64.53 305.9,85.44 l 28.6,5.99 15.1,-24.98 c 65.6,-108.15 132.8,-194.36 189.1,-242.65 7.4,-6.4 15.5,-7.71 20.9,-7.71 3.8,0 7.3,0.62 10.8,1.79 5.5,1.93 10.1,5.09 13.9,9.57 5.6,6.53 8.4,14.86 7.7,23.52 -0.6,8.6 -4.6,16.45 -11.2,22.09 -41,35.15 -90.1,95.56 -142,174.82 l -36.6,56 66.4,7.64 c 61.3,7.08 121,10.66 177.3,10.66 51.5,0 101.7,-3.02 149,-8.94 l 31.7,-3.92 4.1,-31.65 c 6.9,-52.63 14.8,-96.11 24.8,-136.71 3.6,-14.51 16.4,-24.63 31.4,-24.63 2.5,0 5.2,0.35 7.7,0.97 1.1,0.27 1.8,0.48 2.5,0.69 16.4,5.77 25.3,22.22 21.3,38.52 -6.6,26.97 -11.5,53.53 -15.7,76.3 l -11.7,65.57 64,-18.65 c 295.1,-85.93 502.9,-295.56 617.4,-622.98 109.5,-312.69 86.1,-594.36 -69.4,-837.29" /></g><g
         transform="scale(1.47397)"
         id="g38"><path
           id="path40"
           style="fill:#333333;fill-opacity:1;fill-rule:nonzero;stroke:none"
           d="m 15073.7,5290.82 c -19.1,-6.65 -37.1,-12.01 -56,-18.39 -332.6,172.8 -583.5,512.56 -682.3,795.13 -99.2,283.52 -114.5,704.7 37.9,1047.04 18.7,6.78 36,13.84 55.2,20.49 103.2,36.16 201.9,63.23 296.5,82.9 66.8,-110.18 136,-198.71 194.7,-249.05 20.4,-17.44 47.7,-21.64 71.3,-13.37 11.7,4.07 22.5,11.2 31.2,21.3 26.1,30.47 22.5,76.33 -8,102.45 -37.1,31.82 -83.8,89.69 -132.3,163.78 111,12.82 215.4,13.83 312,1.76 6,-46 13.7,-92.27 25.2,-139.22 9.6,-38.94 48.9,-62.75 87.9,-53.19 2.3,0.55 4.5,1.23 6.8,2.04 34.8,12.21 55.4,49.19 46.4,85.89 -5.9,24.42 -10.5,48.58 -14.8,72.73 273.5,-79.65 472.7,-276.67 581.9,-588.69 208,-594.65 -95.2,-1068.27 -853.6,-1333.6 z M 14255,5095.29 c -234.4,147.83 -485.2,475.86 -578.3,741.87 -93,266.02 -101.5,678.65 -10.4,940.39 106.8,69.4 228.8,135.75 366.6,198.92 -107.8,-301.77 -85.7,-733.53 11.3,-1010.81 96.7,-276.4 348.8,-628.44 621.4,-797.37 -147.1,-36.5 -283.8,-60.58 -410.6,-73 z m -1086.6,563.99 c -112.6,321.78 -46.9,611.27 191.6,867.25 -70.5,-273.35 -57,-533.19 32.4,-788.76 89.4,-255.77 240.9,-467.37 466.7,-637.12 -346.2,51.36 -578.1,236.77 -690.7,558.63 z M 12800,6977.42 c -34.6,139.42 42.5,306.65 175.4,380.67 136.8,75.92 296.9,36.57 440.9,-107.53 10.1,-28.02 21.2,-55.7 34.3,-82.77 43.2,-89.49 103,-172.33 180.1,-241.8 -24.8,-15.47 -48.4,-31 -71.5,-46.61 l -140.1,120.16 -121.3,104.07 c -23.4,20.08 -58.7,17.43 -78.8,-6.04 -20.1,-23.47 -17.4,-58.75 6,-78.83 l 170.4,-146.07 70,-60.11 c -9.8,-7.47 -19.1,-15 -28.6,-22.46 l -52.2,24.83 -118.3,56.38 c -27.9,13.23 -61.3,1.42 -74.5,-26.46 -13.3,-27.88 -1.5,-61.19 26.4,-74.49 l 124.3,-59.23 c -6.1,-5.63 -11.8,-11.26 -17.7,-16.89 -292,11.67 -482.8,114.04 -524.8,283.18 z m 727.5,753.88 c 52.7,194.37 189.8,311.47 376,320.97 122.7,6.31 218.8,-42.27 285.7,-144.58 113.5,-173.54 123.3,-480.81 25.4,-697.02 -40.8,-15.81 -80.2,-31.82 -118.6,-47.97 l -23.1,400.35 c -1.8,30.8 -28.2,54.34 -59,52.58 -30.8,-1.84 -54.4,-28.23 -52.6,-59.03 l 25.6,-441.73 c -17.3,-7.87 -34.4,-15.81 -51.1,-23.75 L 13805,7401.1 c -12,28.43 -44.3,42.07 -73.3,29.72 -28.4,-12.01 -41.7,-44.78 -29.7,-73.2 l 133.4,-316.16 c -24.4,-12.55 -48.1,-25.24 -71.2,-37.92 -233.7,178.29 -298,501.91 -236.7,727.76 z m 1801.2,-362.97 c -15.4,394.25 182.7,718.88 424.9,803.55 89.9,31.48 162.7,30.8 216.1,-1.9 85.6,-52.31 104,-170.76 105.9,-184.06 6.3,-46.88 -35.3,-131.96 -98.6,-171.44 -41.5,-25.92 -81,-25.51 -120.8,1.08 -23.8,16.01 -39,34.54 -41.8,51.02 -0.4,2.85 -0.4,5.29 -0.2,7.19 35.2,-3.53 68.6,19.07 77.7,54.35 9.9,38.87 -13.6,78.42 -52.4,88.33 -64.2,16.48 -128.7,-16.08 -156.9,-79.04 -30.9,-69.07 -14.2,-170.83 92.7,-242.47 87.2,-58.48 188.7,-59.78 278.6,-3.73 107.8,67.23 180.6,205.36 165.6,314.38 -13.1,96 -65.6,222.13 -173.9,288.34 -92.5,56.58 -206.9,61.67 -340,15.13 -288.3,-100.88 -528.1,-470.5 -522.4,-918 -118.6,11.87 -245.9,8.14 -381.6,-12.28 -102.9,192.07 -194.6,438.55 -199.5,655.78 -3.6,162.15 40.9,287.73 132.2,373.35 45.6,42.67 136.2,73.2 221,48.91 77.9,-22.32 132.9,-86.09 159.1,-184.46 33.8,-127.41 -81.4,-169.41 -105,-177.08 -51.8,-15.94 -113.1,-10.38 -126,26.53 -5.5,15.74 -5.3,29.38 0.4,40.64 5.7,11.19 17.2,19.81 30,24.02 38.3,10.58 60.5,51.76 49.1,90.23 -11.3,38.53 -51.7,60.52 -90.2,49.12 -51.2,-14.72 -94.3,-50.48 -118.2,-97.16 -23.9,-46.6 -26.9,-101.63 -8.3,-154.81 38.7,-110.66 167.4,-160.05 305.9,-117.51 131.8,40.84 251.8,168.45 202.7,353.33 -39.4,148.31 -131.6,250.21 -259.4,286.84 -124.8,35.76 -269.6,2.58 -360.4,-82.56 -122.8,-115.07 -182.7,-277.41 -178.2,-482.64 5,-223.28 89.9,-474.3 194.9,-681.16 -84.3,-19.2 -171,-43.62 -260.6,-74.56 60.5,224.9 49.6,512.9 -80.3,711.62 -95.8,146.61 -239.2,219.27 -414.7,210.18 -249.3,-12.89 -439.6,-172.94 -508.8,-428.03 -24.3,-89.62 -32.2,-192.2 -21.7,-297.16 -152.7,86.71 -316.3,93.49 -460.9,12.89 -190.5,-106.1 -296.2,-339.42 -245.8,-542.68 25.6,-103.19 129.6,-329.72 539,-382.98 -197,-240.78 -246.7,-484.81 -222.6,-705.64 -100.7,-92.41 -283.7,-274.03 -256.5,-351.71 27.1,-77.61 283.4,-105.56 419.7,-115 242.7,-383.79 786.1,-652.18 1983.1,-233.38 834.7,292 1178.4,845.54 942.8,1518.76 -133.3,381.28 -388.2,616.36 -735.7,695.87" /></g><g
         transform="scale(1.40383)"
         id="g42"><path
           id="path44"
           style="fill:#333333;fill-opacity:1;fill-rule:nonzero;stroke:none"
           d="m 16255.6,6860.38 c -35.5,-18.09 -79,-3.91 -97.1,31.63 -13.6,26.71 -22.9,54.92 -33.7,82.56 -8.4,28.56 -18.9,56.28 -25.2,85.55 -6.7,31.42 8.4,64.68 38.4,79.64 35.6,17.81 79,3.35 96.8,-32.34 13.4,-26.78 22.5,-55.06 33.6,-82.56 8.9,-28.35 19.2,-56.2 25.3,-85.55 6.3,-31.06 -8.4,-63.83 -38.1,-78.93" /></g><g
         transform="scale(1.43379)"
         id="g46"><path
           id="path48"
           style="fill:#333333;fill-opacity:1;fill-rule:nonzero;stroke:none"
           d="m 16241.8,6597.13 c -23.8,-8.79 -47.9,-17.16 -72,-25.18 -37.9,-12.49 -79.2,7.18 -93.1,44.84 -14.2,38.5 5.5,81.26 44,95.41 23.9,8.79 47.9,17.23 72,25.25 37.9,12.42 79.2,-7.18 93.1,-44.84 14.2,-38.5 -5.5,-81.26 -44,-95.48" /></g><g
         transform="scale(1.3441)"
         id="g50"><path
           id="path52"
           style="fill:#333333;fill-opacity:1;fill-rule:nonzero;stroke:none"
           d="m 16253.6,6911.85 c -37.2,-18.9 -82.5,-4.1 -101.4,33.03 -14.2,27.9 -24,57.29 -35.2,86.23 -8.8,29.83 -19.8,58.77 -26.3,89.35 -7,32.81 8.6,67.48 40,83.18 37.3,18.6 82.6,3.5 101.1,-33.78 14,-27.97 23.5,-57.51 35.2,-86.22 9.3,-29.62 20.1,-58.71 26.3,-89.36 6.7,-32.44 -8.7,-66.66 -39.7,-82.43" /></g><g
         transform="scale(1.33431)"
         id="g54"><path
           id="path56"
           style="fill:#333333;fill-opacity:1;fill-rule:nonzero;stroke:none"
           d="m 16237.5,6663.88 c -25.6,-9.52 -51.5,-18.51 -77.4,-27.13 -40.6,-13.34 -85.1,7.72 -100,48.19 -15.3,41.37 5.8,87.31 47.3,102.6 25.6,9.44 51.4,18.44 77.3,27.05 40.7,13.42 85.2,-7.72 100.1,-48.19 15.2,-41.37 -5.9,-87.31 -47.3,-102.52" /></g><g
         transform="scale(1.40062)"
         id="g58"><path
           id="path60"
           style="fill:#333333;fill-opacity:1;fill-rule:nonzero;stroke:none"
           d="m 16294,6585.16 c -17.6,-123.45 -92.3,-214.19 -210.3,-255.46 -118.1,-41.27 -233.1,-16.92 -323.8,68.54 -30.7,28.99 -32.1,77.4 -3.2,108.1 29,30.7 77.4,32.12 108.1,3.21 49.2,-46.34 104.2,-57.98 168.3,-35.56 64.2,22.49 100,65.9 109.5,132.73 6,41.84 44.8,70.9 86.6,64.9 41.7,-6 70.8,-44.7 64.8,-86.46" /></g><g
         transform="scale(1.11652)"
         id="g62"><path
           id="path64"
           style="fill:#333333;fill-opacity:1;fill-rule:nonzero;stroke:none"
           d="m 11965.3,10635 c -26.3,0 -52.8,9.8 -73.2,29.5 -41.9,40.4 -43.1,107.1 -2.7,149 84,87.1 183,157.8 294.3,209.9 90,42.4 180.7,75.3 269.4,98.1 56.4,14.3 113.8,-19.6 128.2,-76 14.5,-56.4 -19.5,-113.7 -75.9,-128.2 -76,-19.5 -154.1,-47.9 -232.2,-84.5 -87.9,-41.4 -166,-97.1 -232.1,-165.6 -20.6,-21.4 -48.3,-32.2 -75.8,-32.2 z m 1541.5,-116.5 c -35.2,0 -69.6,17.7 -89.6,49.7 -98.1,157.5 -233.7,272.4 -392.4,332.2 -54.4,20.5 -81.9,81.3 -61.3,135.7 20.5,54.6 81.4,81.9 135.7,61.4 202.4,-76.3 374.2,-220.8 496.9,-417.9 30.7,-49.4 15.6,-114.4 -33.8,-145.2 -17.3,-10.7 -36.5,-15.9 -55.5,-15.9 z m -1826.7,-994.97 c -52.6,0 -98.2,39.49 -104.5,93.12 -10.1,86.66 -15.2,172.34 -15.2,254.79 0,129.76 12.6,254.06 37.7,369.36 12.3,56.9 68.8,92.5 125.3,80.7 56.9,-12.3 92.9,-68.5 80.6,-125.3 -21.9,-100.7 -33,-209.92 -33,-324.76 0,-74.32 4.7,-151.73 13.9,-230.24 6.8,-57.84 -34.6,-110.16 -92.3,-116.91 -4.2,-0.49 -8.4,-0.76 -12.5,-0.76 z m 1952.3,-151.65 c -8.8,0 -17.8,1.1 -26.8,3.51 -56.2,14.76 -89.9,72.31 -75.1,128.63 37.1,141.52 55.9,282.96 55.9,420.42 0.1,43.91 -1.9,87.86 -5.7,130.56 -5.3,58 37.5,109.2 95.4,114.4 57.9,5.6 109.2,-37.5 114.4,-95.4 4.4,-49.1 6.6,-99.44 6.6,-149.62 0,-155.38 -21.1,-314.83 -62.7,-473.85 -12.5,-47.29 -55.2,-78.65 -102,-78.65 z M 7821.64,9219.6 c -13.2,0 -26.64,2.48 -39.64,7.79 -175.44,71.35 -361.01,97.54 -525.51,73.76 -57.94,-7.93 -111.02,31.64 -119.36,89.27 -8.3,57.56 31.64,110.98 89.23,119.32 201.25,28.81 425.19,-1.86 634.98,-87.13 53.91,-21.92 79.86,-83.41 57.94,-137.32 -16.65,-40.87 -56.04,-65.69 -97.64,-65.69 z M 6522.12,8475.54 c -4.38,0 -8.8,0.28 -13.24,0.82 -57.74,7.24 -98.68,59.91 -91.45,117.67 30.23,241.48 109.74,442.55 236.34,597.72 36.81,45.15 103.16,51.91 148.24,15.03 45.12,-36.75 51.84,-103.12 15.06,-148.21 -101.19,-124.08 -165.29,-289.17 -190.56,-490.73 -6.65,-53.29 -52.05,-92.3 -104.39,-92.3 z M 12068,8411.56 c -36.3,0 -71.6,18.83 -91.2,52.46 -104.5,179.58 -191.4,366.04 -258.3,554.23 -19.5,54.8 9.2,115.04 63.9,134.55 55,19.37 115.2,-9.16 134.6,-63.96 62.6,-175.93 144,-350.53 241.9,-518.94 29.3,-50.24 12.2,-114.76 -38,-144 -16.7,-9.71 -34.9,-14.34 -52.9,-14.34 z m -3461.25,-30.4 c -44.35,0 -85.61,28.27 -100.12,72.73 -56.73,173.78 -149.97,330.4 -277.12,465.58 -39.87,42.32 -37.84,109.05 4.52,148.89 42.4,39.91 109.13,37.84 148.94,-4.55 148.57,-157.85 257.56,-341.07 323.98,-544.57 18.06,-55.28 -12.17,-114.77 -67.49,-132.83 -10.86,-3.52 -21.85,-5.25 -32.71,-5.25 z m 4435.95,-22.54 c -26.3,0 -52.5,9.66 -73,29.23 -42,40.27 -43.4,106.99 -3.2,148.97 135.7,141.65 251.8,293.17 344.9,450.33 29.8,50.05 94.3,66.59 144.4,36.89 50.1,-29.71 66.6,-94.37 36.9,-144.42 -101.4,-170.96 -227.2,-335.29 -373.9,-488.52 -20.8,-21.65 -48.5,-32.48 -76.1,-32.48 z m -215.2,-849.31 c -23.9,0 -47.8,8.06 -67.6,24.6 -114.5,95.96 -223.6,200.18 -325.9,311.03 -73.9,-45.5 -150.3,-89.34 -228.7,-131.04 -22.9,-12.2 -45.9,-24.27 -68.9,-36.2 -51.7,-26.74 -115.3,-6.41 -142,45.23 -26.8,51.69 -6.5,115.25 45.2,142 22.3,11.51 44.5,23.16 66.8,34.95 68,36.25 134.4,74.1 198.8,113.25 -6.8,36.19 5.5,74.94 35.7,100.3 37.4,31.43 90.3,32.47 128.5,5.58 21.5,14.69 42.7,29.51 63.5,44.47 47.5,34.11 113.3,23.16 147.1,-24.27 33.9,-47.28 23,-113.12 -24.3,-146.97 -14.1,-10.13 -28.4,-20.19 -42.8,-30.25 89.2,-94.65 183.7,-183.92 282.4,-266.64 44.6,-37.36 50.4,-103.82 13.1,-148.41 -20.9,-24.82 -50.8,-37.63 -80.9,-37.63 z m -5854.64,-65.15 c -22.4,0 -44.94,7.1 -64.07,21.78 -184.74,141.79 -320.71,307.58 -404.18,492.8 -23.93,53.08 -0.28,115.47 52.76,139.32 53.08,24.06 115.43,0.34 139.35,-52.73 69.03,-153.17 183.53,-291.87 340.36,-412.29 46.18,-35.43 54.86,-101.54 19.43,-147.73 -20.75,-27.02 -52.04,-41.15 -83.65,-41.15 z M 8510,7227.22 c -14.19,0 -28.67,2.9 -42.5,9.03 -53.24,23.51 -77.3,85.76 -53.8,138.98 80.45,182.12 130.18,362.8 147.8,536.99 5.82,57.83 57.74,99.6 115.4,94.23 57.9,-5.86 100.08,-57.56 94.23,-115.47 -19.83,-196.32 -75.25,-398.5 -164.68,-600.95 -17.42,-39.37 -55.98,-62.81 -96.45,-62.81 z m 2480.4,-4.96 c -45.2,0 -86.9,29.23 -100.8,74.65 -16.9,55.64 14.4,114.57 70.1,131.53 187.4,57.15 372.5,122.5 550.2,194.05 53.9,21.72 115.3,-4.35 137.1,-58.39 21.7,-53.97 -4.4,-115.32 -58.3,-137.1 -183.4,-73.83 -374.3,-141.18 -567.5,-200.12 -10.3,-3.1 -20.6,-4.62 -30.8,-4.62 z M 8062.08,7003.13 c -6.59,0 -13.27,0.62 -19.96,1.92 -212.66,40.81 -410.53,96.03 -588.03,164.21 -54.36,20.88 -81.48,81.81 -60.63,136.13 20.86,54.33 81.79,81.48 136.11,60.6 165.95,-63.69 351.76,-115.53 552.26,-154 57.14,-10.96 94.57,-66.17 83.61,-123.32 -9.68,-50.46 -53.83,-85.54 -103.36,-85.54 z m 1770.51,-29.93 c -52.21,0 -97.53,38.82 -104.34,91.97 -7.43,57.7 33.41,110.49 91.09,117.94 191.56,24.61 385.16,57.84 575.26,98.78 56.6,12.69 112.9,-23.92 125.1,-80.79 12.3,-56.94 -23.9,-112.98 -80.8,-125.19 -195.8,-42.18 -395.3,-76.44 -592.69,-101.8 -4.57,-0.56 -9.14,-0.91 -13.62,-0.91 z m 4018.91,-47.21 c -11.5,0 -23.2,1.93 -34.7,5.92 -191.9,66.94 -378.9,152 -555.9,252.92 -50.5,28.82 -68.1,93.2 -39.3,143.73 28.8,50.53 93.1,68.1 143.7,39.36 165.9,-94.58 341.2,-174.34 521,-237.07 54.9,-19.16 83.9,-79.2 64.7,-134.14 -15.1,-43.5 -55.9,-70.72 -99.5,-70.72 z m -4844.86,-6.76 c -122.36,0 -244.61,3.73 -363.35,11.24 -58.08,3.58 -102.23,53.63 -98.57,111.74 3.64,58.11 53.52,102.98 111.77,98.51 188.43,-11.79 383.28,-13.86 581.76,-6.35 58.93,2.21 107.12,-43.15 109.35,-101.26 2.15,-58.11 -43.16,-107.05 -101.29,-109.26 -80.79,-3.11 -160.68,-4.62 -239.67,-4.62 z m 6598.46,-127.8 c -50.8,0 -95.6,36.88 -103.9,88.64 -9.2,57.43 29.8,111.54 87.2,120.78 185,29.78 374.8,73.2 564.3,129.11 55.9,16.76 114.4,-15.44 130.8,-71.28 16.5,-55.76 -15.4,-114.35 -71.2,-130.83 -198,-58.39 -396.7,-103.82 -590.4,-135.04 -5.6,-0.89 -11.3,-1.38 -16.8,-1.38 z M 14976,6740 c -192.3,0 -382.9,14.68 -567.1,43.71 -57.5,9.1 -96.7,63 -87.7,120.49 9.1,57.43 63.3,95.96 120.5,87.69 173.4,-27.37 352.9,-41.22 533.7,-41.22 l 38.8,0.27 c 58.4,2.9 105.9,-46.12 106.5,-104.23 0.5,-58.17 -46.1,-105.88 -104.2,-106.43 z M 7824.29,6269.2 c -28.09,0 -56.07,11.09 -76.79,33.15 -39.87,42.39 -37.81,109.12 4.59,148.96 45.7,42.95 89.3,87.41 129.58,132.22 89.72,99.82 171.96,200.93 244.48,300.55 34.22,47.08 100.06,57.42 147.21,23.23 47.04,-34.27 57.42,-100.16 23.19,-147.17 -76.75,-105.54 -163.65,-212.32 -258.18,-317.51 -44.23,-49.15 -91.99,-97.96 -141.94,-144.9 -20.37,-19.1 -46.29,-28.53 -72.14,-28.53 z M 2814.96,5961.46 c -18.79,0 -37.82,5.02 -55.01,15.59 -176.23,108.19 -341.33,230.27 -490.71,362.8 -43.53,38.6 -47.53,105.2 -8.92,148.69 38.57,43.56 105.15,47.7 148.71,8.89 140.26,-124.35 295.39,-238.98 461.14,-340.72 49.6,-30.45 65.11,-95.38 34.67,-145 -19.89,-32.43 -54.45,-50.25 -89.88,-50.25 z M 6817.9,5656.68 c -42.19,0 -82,25.52 -98.23,67.17 -21.09,54.19 5.76,115.27 59.98,136.41 185.01,72 358.86,156.37 516.68,250.77 49.98,29.92 114.64,13.53 144.52,-36.45 29.85,-49.89 13.58,-114.64 -36.36,-144.46 -167.92,-100.41 -352.42,-189.97 -548.4,-266.19 -12.55,-4.93 -25.5,-7.25 -38.19,-7.25 z M 3904.31,5504.96 c -8.79,0 -17.72,1.07 -26.65,3.4 -198.94,51.86 -392.58,116.7 -575.46,192.83 -53.73,22.3 -79.16,84.01 -56.79,137.75 22.4,53.74 84.06,79.08 137.72,56.78 173.89,-72.28 358.15,-134.08 547.68,-183.42 56.29,-14.69 90.06,-72.19 75.38,-128.53 -12.34,-47.38 -55.08,-78.81 -101.88,-78.81 z m 1763.93,-123.51 c -53.05,0 -98.68,40.03 -104.61,93.95 -6.31,57.86 35.43,109.8 93.26,116.16 194.33,21.32 386.41,54.28 570.95,97.9 56.48,13.34 113.36,-21.59 126.8,-78.19 13.4,-56.61 -21.65,-113.48 -78.28,-126.83 -192.9,-45.67 -393.64,-80.06 -596.51,-102.28 -3.89,-0.44 -7.79,-0.71 -11.61,-0.71 z m -591.42,-29.2 c -0.34,0 -0.65,0 -0.99,0 -202.12,1.79 -405.16,15.67 -603.52,41.38 -57.7,7.43 -98.43,60.27 -90.99,117.95 7.48,57.77 60.59,98.08 118.01,91 190.06,-24.54 384.65,-37.88 578.42,-39.68 58.18,-0.44 104.92,-48.09 104.41,-106.31 -0.56,-57.86 -47.61,-104.34 -105.34,-104.34" /></g></g></g><rect
     style="opacity:0;fill:#000000"
     id="rect1"
     width="3060.146"
     height="1589.8757"
     x="183.78378"
     y="352.98157" /></svg>
