<?xml version="1.0" encoding="UTF-8" standalone="no"?>
<svg
   version="1.0"
   width="3467.000000pt"
   height="2264.000000pt"
   viewBox="0 0 3467.000000 2264.000000"
   preserveAspectRatio="xMidYMid meet"
   id="svg38"
   sodipodi:docname="QuiverBee-Cartoon-Flight-Path-Final-fotor-bg-remover-2023120421755_1.svg"
   inkscape:version="1.3.2 (091e20e, 2023-11-25, custom)"
   xmlns:inkscape="http://www.inkscape.org/namespaces/inkscape"
   xmlns:sodipodi="http://sodipodi.sourceforge.net/DTD/sodipodi-0.dtd"
   xmlns="http://www.w3.org/2000/svg"
   xmlns:svg="http://www.w3.org/2000/svg">
  <defs
     id="defs38" />
  <sodipodi:namedview
     id="namedview38"
     pagecolor="#ffffff"
     bordercolor="#000000"
     borderopacity="0.25"
     inkscape:showpageshadow="2"
     inkscape:pageopacity="0.0"
     inkscape:pagecheckerboard="true"
     inkscape:deskcolor="#d1d1d1"
     inkscape:document-units="pt"
     inkscape:zoom="0.18200816"
     inkscape:cx="1642.7835"
     inkscape:cy="1101.599"
     inkscape:window-width="1920"
     inkscape:window-height="991"
     inkscape:window-x="-9"
     inkscape:window-y="-9"
     inkscape:window-maximized="1"
     inkscape:current-layer="svg38" />
  <path
     d="m 2778.7585,87.161811 c -6.6,2.8 -16.7,8.9 -20.6,12.4 -7,6.399999 -15.1,17.099999 -20.5,27.299999 -0.6,1.1 -1.6,2.9 -2.2,4 -3.7,6.6 -9.3,23.8 -11.3,34.5 -1.1,6.3 -1.1,35.2 0.1,42.5 0.5,3.3 1.4,8.2 2,11 0.6,2.7 1.7,9 2.5,14 2.3,14.2 7.1,30.4 14.8,50 0.9,2.2 3,7.8 4.7,12.5 1.8,4.7 3.6,9 4.1,9.6 0.5,0.6 1.8,3.6 2.8,6.7 1.1,3 2.6,6.6 3.4,7.9 0.8,1.2 1.7,3.5 2.1,4.9 1.1,4.8 -1.7,6.7 -15.4,10.4 -6.9,1.8 -16.5,4.5 -21.5,6.1 -4.9,1.5 -11,2.8 -13.5,2.8 l -4.5,0.1 0.2,-6.8 c 0.1,-3.7 0.7,-7.5 1.2,-8.5 2.3,-4.3 3.4,-23.2 2.8,-49.2 -0.5,-23.9 -0.7,-26.9 -2.6,-31 -1.1,-2.5 -2.3,-6.6 -2.7,-9 -0.8,-5.4 -6.2,-17.1 -12.1,-26.2 -2.3,-3.8 -4.3,-7.1 -4.3,-7.4 0,-1.2 -8.8,-12.3 -13.5,-16.9 -10.8,-10.9 -22.3,-17.1 -41.7,-22.6 -10.5,-3 -30.2,-2.7 -42.2,0.6 -13.3,3.6 -26.3,9 -33.1,13.7 -8,5.5 -21.6,18.9 -26.7,26.3 -14.4,20.9 -23,49.7 -23,77.1 0,7.1 0.1,14.2 0.3,15.8 0.3,2.4 -0.1,3.3 -2.3,4.5 -2.6,1.5 -3.1,1.4 -8.5,-1.5 -6.2,-3.4 -26.9,-9 -36.8,-9.9 -10.5,-1.1 -34.3,4.1 -42.4,9.3 -12.6,8 -27.6,21.5 -33,29.6 -0.9,1.3 -3.3,4.9 -5.3,8 -2.1,3 -4.1,6.8 -4.4,8.3 -0.4,1.6 -1.6,4.7 -2.6,7.1 -2.5,5.6 -3.7,12.2 -4.7,26.2 -1.2,16.8 2.3,34.8 8.7,45.7 3,5 10,14.3 12.6,16.8 10.3,9.7 22.5,18.8 30.5,22.9 9.4,4.9 26,9.9 43.6,13.2 4.4,0.9 8.3,2.1 8.7,2.7 1.1,1.7 1,6.5 -0.1,7.2 -0.6,0.3 -2.9,3.6 -5.4,7.3 -2.4,3.7 -5.2,8 -6.3,9.6 -1.9,2.9 -5.3,8.7 -8,13.6 -0.8,1.4 -1.4,3.1 -1.4,3.8 0,0.8 -0.9,2.7 -2.1,4.3 -1.2,1.7 -2.7,5.1 -3.5,7.7 -2.1,7.4 -5.4,17.3 -7.5,22.4 -3.2,8 -5.4,25.6 -5.5,44.8 -0.1,19.1 -0.8,22.2 -6.3,26.5 -3.4,2.6 -27,26.9 -29,29.8 -0.8,1.2 -3.1,4.1 -5,6.3 -2,2.3 -5.3,7.6 -7.5,11.8 -4.4,8.7 -4.4,12.5 0.2,16.9 3.6,3.4 7.6,5 22.9,9.1 14.2,3.8 23.3,5.3 40,6.5 11.9,0.9 17,2.9 19.5,7.4 2.8,5.4 15.6,20.3 25.5,29.7 29.5,28.2 66,43.7 117.8,50 26.5,3.2 65.3,2.2 91.5,-2.5 4.7,-0.8 15.3,-2.6 23.5,-4 16.1,-2.7 35.2,-6.8 42.5,-9 2.5,-0.7 11.7,-3.2 20.5,-5.5 17.9,-4.6 53.5,-16.1 75.6,-24.4 31,-11.6 73.3,-34.5 99,-53.6 21,-15.6 42.8,-38.8 56.2,-59.7 8.4,-13.2 19.2,-36.7 21.2,-46.3 0.3,-1.9 1.5,-6.3 2.5,-9.6 3,-10 5.3,-32.4 4.6,-43.9 -0.4,-5.5 -1.1,-16.3 -1.6,-24 -0.6,-10.4 -1.4,-15.2 -2.9,-18.5 -1.1,-2.5 -2.3,-7.4 -2.7,-11 -0.4,-3.6 -1.5,-8.1 -2.4,-10 -1,-1.9 -2.2,-5.8 -2.8,-8.6 -0.6,-2.8 -2.3,-7.3 -3.7,-9.9 -1.4,-2.7 -2.5,-5.4 -2.5,-6.1 0,-1.2 -1.1,-3.9 -6.4,-15.4 -0.9,-1.9 -2,-4.2 -2.5,-5 -0.5,-0.8 -1.6,-3.1 -2.5,-5 -0.8,-1.9 -2.6,-5.1 -3.8,-7.1 -1.3,-1.9 -3.3,-5.1 -4.5,-7 -11.2,-17.7 -32,-40.8 -46.3,-51.4 -5.7,-4.3 -30.4,-19.5 -31.7,-19.5 -0.2,0 -2.3,-0.8 -4.6,-1.9 -8.7,-3.9 -31.6,-12.1 -33.7,-12.1 -0.9,0 -2.5,-0.9 -3.5,-2 -1.7,-1.8 -1.8,-3.6 -1.2,-21.8 0.4,-13.5 1.1,-21.4 2.2,-25 0.9,-2.9 2.2,-8.8 3,-13.1 0.7,-4.3 2.3,-9.6 3.4,-11.7 1.2,-2.1 2.1,-4.5 2.1,-5.3 0,-0.8 1.4,-4.3 3,-7.8 1.7,-3.4 3,-6.9 3,-7.6 0,-0.6 0.9,-2.6 2,-4.2 1.1,-1.7 3,-4.8 4.1,-7 3.7,-7.3 5.7,-10.7 7.8,-12.9 1.2,-1.2 2.1,-2.6 2.1,-3 0,-1.2 4.7,-7 11,-13.5 6.3,-6.5 21.3,-18.5 28,-22.4 6.1,-3.5 21.9,-8.5 30.7,-9.8 17.2,-2.4 33.5,5 41.4,18.7 3.4,6 8.9,22.9 8.9,27.5 0,1.5 -1.4,6.4 -3.1,10.8 -2.5,6.5 -4.2,9.3 -8.8,14 -3.2,3.2 -8.3,7 -11.5,8.6 -5,2.4 -6.5,2.7 -12.2,2.2 -15.9,-1.2 -26.9,-13.4 -17.4,-19.1 1.6,-0.9 4.3,-2.8 6,-4.2 2.6,-2.3 3,-3.2 3,-7.8 0,-4.5 -0.4,-5.6 -3,-8.1 -2.3,-2.2 -4.1,-2.9 -8.4,-3.3 -7,-0.6 -11.4,1 -15.8,5.6 -6.2,6.4 -8.8,12.4 -8.8,20.6 0,8.1 2.3,14 8.8,22.8 4.8,6.5 6.2,7.7 13.2,11.8 7.6,4.5 14.2,6.3 23,6.3 13.1,0 25.6,-5.8 36.7,-17 6.7,-6.7 9.8,-11.1 15,-21.3 l 3.3,-6.5 v -16 c 0,-13.8 -0.3,-16.6 -2,-20.4 -1.1,-2.4 -2,-4.7 -2,-5.2 0,-3.7 -10.2,-19.8 -16.6,-26.4 -4.5,-4.6 -15.3,-11.3 -23.4,-14.6 -4.8,-1.9 -7.3,-2.2 -19.5,-2.2 -15.8,0 -19.4,0.8 -36.9,8 -12.9,5.3 -12.9,5.3 -22.6,12.2 -12.6,9.2 -28.5,26.2 -37.6,40.4 -2.6,3.9 -5.4,8.3 -6.4,9.7 -3,4.4 -9,16.6 -9,18.3 0,0.9 -1.1,4 -2.4,6.9 -3.9,8.7 -6.5,16 -7.6,21.8 -0.7,3 -2,8.1 -3.1,11.4 -2.1,6.3 -4.4,20.8 -6.2,40.4 -1.6,17.1 -0.2,16.2 -26.1,16.3 -11,0 -26.2,0.6 -33.6,1.3 -7.4,0.7 -15,0.9 -16.8,0.5 -3.8,-0.8 -7.8,-4.2 -8.8,-7.3 -0.4,-1.2 -1.5,-3.4 -2.6,-4.9 -1.1,-1.5 -2.4,-4.4 -3,-6.5 -0.6,-2 -1.8,-4.9 -2.8,-6.3 -1,-1.4 -2.2,-3.8 -2.6,-5.5 -0.4,-1.6 -1.7,-4.9 -2.9,-7.4 -1.2,-2.5 -2.6,-6.1 -3,-8 -0.4,-1.9 -1.5,-5.1 -2.5,-7 -0.9,-1.9 -2,-5.3 -2.4,-7.5 -0.4,-2.2 -1.8,-6.8 -3.2,-10.2 -1.3,-3.4 -2.4,-7.5 -2.4,-9.1 0,-1.6 -0.9,-5.5 -2,-8.8 -1.3,-3.7 -2.4,-10.8 -3.1,-18.9 -0.5,-7.2 -1.4,-15.5 -2,-18.5 -0.7,-4 -0.5,-10.5 0.7,-24 1.4,-15.7 2.1,-19.6 4.6,-25.9 3.5,-9.1 6.7,-14.3 13.8,-22.9 6.8,-8.4 8.2,-9.6 15.1,-13.1 15.8,-8.3 31.4,-8.4 46.9,-0.5 11.2,5.8 15.7,11.1 21.7,25.7 2.4,5.9 3.5,10.4 3.9,16.2 0.8,9.9 -0.3,12.7 -7.9,21.1 -4.5,4.9 -6.9,6.6 -12.8,9 -17,6.8 -31.9,1.5 -31.9,-11.2 0,-4.7 2.3,-8.2 7.5,-11.4 7.4,-4.6 9.3,-14.3 4,-19.6 -9.5,-9.4 -34.4,12 -33.8,29.1 0.4,11.6 8.9,27.7 17.6,33.2 12.3,7.8 33.6,7.4 49.9,-0.8 6.9,-3.5 18.4,-14.2 21.3,-19.9 1,-1.9 2.6,-4.6 3.6,-6 0.9,-1.4 2.5,-6.9 3.4,-12.2 1.5,-9 1.5,-10.4 0.1,-19 -1.9,-10.9 -6.1,-21.4 -12.9,-31.8 -8,-12.3 -14.7,-18.099999 -28.6,-24.999999 l -6,-3 -21.8,0.1 c -18.1,0 -22.5,0.3 -25.8,1.7 z m -143.5,102.599999 c 12.3,3.6 32.3,20 33.6,27.5 0.4,2 2.2,7.4 4.1,12.1 4.2,10 5.9,15.7 8.4,26.3 1,4.9 2.6,8.8 3.9,10.2 1.3,1.3 2.6,4.3 3.1,6.7 1.4,7.4 1.1,33.3 -0.6,40.1 -0.8,3.4 -1.9,10.2 -2.6,15.2 -2.3,18.5 -7.7,29.2 -16.9,33.2 -1.9,0.8 -6.2,2.4 -9.4,3.4 -5.1,1.6 -6.3,1.6 -9.1,0.5 -3.1,-1.3 -3.2,-1.5 -3.8,-9.7 -0.4,-4.6 -0.7,-14 -0.7,-20.9 0,-12.1 -0.8,-21.9 -3,-36.5 -0.6,-3.9 -1.3,-9.8 -1.7,-13.3 -0.5,-5.6 -0.9,-6.5 -3.4,-7.7 -4.1,-2.2 -5.7,-1.9 -9.1,1.6 l -3.1,3 0.6,11.7 c 0.4,6.4 1.4,17.5 2.2,24.7 2.2,18.7 3.8,55.2 2.4,57.7 -2.5,4.6 -11.8,5.8 -15.2,2 -1.5,-1.8 -6.3,-12.6 -9.1,-20.7 -1,-2.8 -2.8,-7.9 -4.1,-11.5 -1.2,-3.6 -2.9,-7.9 -3.7,-9.5 -2.4,-4.7 -6.5,-13.7 -7.7,-16.8 -1.4,-3.6 -7,-6.1 -10.5,-4.7 -3,1.1 -4.6,3.9 -4.6,8.1 0,3.2 8.4,24.4 10.1,25.5 0.5,0.3 0.9,1.3 0.9,2.2 0,1 0.9,3.4 2,5.5 1.1,2.1 3.2,6.8 4.5,10.4 1.4,3.7 2.9,7.1 3.4,7.7 1.3,1.7 4.1,10.7 4.1,13.3 0,8.1 -12.8,13.4 -20.4,8.4 -4.1,-2.7 -19.7,-19.1 -21,-22.1 -0.6,-1.4 -2.9,-5.2 -5.1,-8.5 -8.4,-12.8 -15.6,-29.1 -17.5,-39.4 -0.6,-3.2 -1.8,-8.3 -2.8,-11.3 -2.3,-7.3 -2.3,-37.4 0.1,-50.3 5,-27.3 16.6,-47.4 35.8,-61.7 6.4,-4.8 18.4,-9.7 30.4,-12.5 11.7,-2.6 26.5,-2.6 35.5,0.1 z m -160.1,129.1 c 4.4,1 10.7,3.8 17.6,7.6 19.9,11.1 23.1,14.4 33.4,35.5 9,18.3 13.7,25.4 25.3,39 4.3,5.1 7.8,10.1 7.8,11.2 0,2.5 -7.2,8 -11.6,8.8 -5.1,0.9 -12.2,-3.7 -29.9,-19.6 -3.8,-3.5 -10.6,-9.5 -14.9,-13.4 -4.3,-3.9 -8.5,-7.7 -9.2,-8.3 -3.5,-3.5 -10.7,-3.8 -13.9,-0.6 -0.9,0.8 -1.5,3.3 -1.5,5.9 0,4.9 0.6,5.6 11.6,14.4 3,2.5 10,8.6 15.5,13.7 5.4,5 12.6,11.3 15.9,13.9 8,6.3 8.2,11.1 0.4,12 -3.3,0.5 -5.8,-0.5 -17.6,-6.5 -16.9,-8.6 -23.8,-9.9 -28.3,-5.5 -2.6,2.6 -1.9,8.6 1.3,11.6 3,2.9 10.6,6.9 16.7,8.8 4.8,1.5 10.5,5.6 10.5,7.5 0,3.3 -4.6,4.7 -13.2,4.2 -8.2,-0.5 -11.9,-1.1 -26.8,-4.3 -19.9,-4.2 -28,-7.1 -41,-14.8 -14.7,-8.6 -24.1,-20.1 -29.1,-35.6 -2.9,-8.8 -3.1,-10.3 -2.6,-20 0.6,-13.1 3.7,-23.4 10.6,-34.5 10.2,-16.6 25.5,-28 42.6,-31.8 5,-1.1 24.1,-0.6 30.4,0.8 z m 384.6,28.3 4,0.7 2.3,13 c 1.2,7.2 3.1,14.6 4,16.5 5.6,11.5 22.7,10.2 26.2,-2 0.7,-2.4 0.5,-5.4 -0.5,-10.4 -2.2,-10.3 -2.1,-11 1.3,-10.1 1.5,0.3 7.2,2.4 12.7,4.6 50.8,19.8 88.4,66.9 104.5,130.9 7.9,31.6 8.1,65.2 0.4,91.8 -15.7,54.3 -60.1,98.8 -131.4,131.8 -17.4,8.1 -49.6,20.4 -53.2,20.4 -3.3,0 -20.7,-10.5 -34,-20.5 -46.2,-34.5 -85.5,-88 -102.2,-139 -18.5,-56.7 -18,-126.9 1.4,-182.9 7,-20.3 5.2,-18.5 24.8,-25 16.5,-5.5 46.4,-13.6 50.1,-13.6 1.2,0 3.3,2.3 6.1,6.7 7.4,11.9 20.5,28.6 28.6,36.4 6.5,6.3 8.7,7.8 12.1,8.4 8.2,1.3 16.3,-5.4 16.3,-13.7 0,-5.3 -1,-6.9 -10.4,-16.9 -7.3,-7.7 -17.7,-21.3 -19.2,-25.3 -0.5,-1.2 0.5,-1.6 4.8,-1.9 9.9,-0.6 47.3,-0.6 51.3,0.1 z m -226.9,62.2 c -3.5,10.9 -7.2,29.7 -9.2,46.1 -2,16.6 -2.3,53.3 -0.5,71.4 5.4,55.2 19.3,93.9 50.5,140.5 22.6,33.7 53.4,66 79.4,83.2 3.4,2.3 5.9,4.5 5.5,4.9 -2.1,2 -56.6,12.2 -72.2,13.5 l -7.6,0.6 -8,-5.7 c -36,-25.8 -73.8,-72.2 -95.5,-117 -10.7,-22.2 -17.3,-45.2 -21.7,-76.5 -1.4,-9.9 -1.8,-19.2 -1.7,-44.5 0,-28.1 0.3,-33.7 2.2,-46.3 2.2,-13.9 7.2,-35.5 9.1,-39.1 1.4,-2.6 30.3,-19.4 52,-30.3 10.7,-5.4 19.7,-9.6 19.9,-9.4 0.2,0.2 -0.8,4.1 -2.2,8.6 z m -130.9,86.2 c -0.4,2.9 -1.7,9.1 -2.7,13.8 -3.2,14.8 -4.4,26.9 -4.3,47 0,12.7 0.6,23.9 1.7,32 6.7,49.6 26.7,96.9 56.6,133.9 9.4,11.5 29,31.1 38,37.9 3.6,2.7 7.2,5.7 8,6.6 1.3,1.7 1,1.8 -4.5,1.1 -6.8,-0.7 -26.5,-6.3 -37.3,-10.6 -34.2,-13.6 -61.2,-37.1 -78.4,-68.5 -9.4,-17 -16.9,-37.6 -20.9,-57 -2.6,-12.7 -3.6,-36.9 -2,-48.7 3.5,-25.8 13.3,-50.1 29.4,-72.7 6.6,-9.2 15.6,-20 16.7,-20 0.3,0 0.2,2.4 -0.3,5.2 z"
     id="path1"
     style="fill:#000000;stroke:none;stroke-width:0.1" />
  <path
     d="m 2899.7585,434.76181 c -8.8,3.9 -10.2,10.4 -5.5,25.1 4.9,15.3 9.2,24.1 13.2,26.5 7.2,4.5 17.5,0.5 19.7,-7.8 1.2,-4.2 -1.1,-13.7 -6.8,-28.5 -4.2,-10.6 -6.5,-13.8 -11.4,-15.6 -3.6,-1.4 -5.5,-1.3 -9.2,0.3 z"
     id="path2"
     style="fill:#000000;stroke:none;stroke-width:0.1" />
  <path
     d="m 2767.5585,481.36181 c -3.8,2.3 -6.3,6.7 -6.3,10.9 0,3.4 4.8,19.2 8.7,28.6 4.3,10.3 10.6,14.7 18.3,12.5 8,-2.3 11,-9.1 8.4,-19.2 -2.1,-8.4 -8.1,-24.5 -10.6,-28.6 -3.7,-6.1 -12.2,-8.1 -18.5,-4.2 z"
     id="path3"
     style="fill:#000000;stroke:none;stroke-width:0.1" />
  <path
     d="m 2966.2585,485.86181 c -10.7,3.8 -14.4,7 -15.5,13.6 -1.3,7.8 5.6,15.9 13.6,15.9 5.2,0 20.2,-5.6 23.3,-8.7 1.4,-1.4 3.1,-4.3 3.8,-6.5 1,-3.3 0.9,-4.6 -0.8,-8.6 -1.5,-3.8 -2.8,-5.2 -6.4,-7 -5.7,-2.8 -6.6,-2.8 -18,1.3 z"
     id="path4"
     style="fill:#000000;stroke:none;stroke-width:0.1" />
  <path
     d="m 2899.5585,527.36181 c -4.1,2.5 -5.9,5.3 -7.3,11.3 -2.4,11.1 -7.2,17.5 -16.4,21.8 -12,5.7 -22.5,4.8 -32.6,-2.8 -7.2,-5.4 -11.1,-6.6 -16.1,-5.3 -4.5,1.3 -9.6,6.7 -10.4,11.4 -1,5.3 2.2,11.3 8.6,16.2 11.3,8.7 22.1,12.4 35.9,12.4 26.9,0 50.2,-17.1 57.4,-42.1 2.3,-7.8 2.3,-14.1 -0.1,-18.1 -3.6,-6.3 -12.7,-8.7 -19,-4.8 z"
     id="path5"
     style="fill:#000000;stroke:none;stroke-width:0.1" />
  <path
     d="m 2749.4585,561.56181 c -4.8,1.8 -9.6,4.3 -11.2,6 -7.7,7.7 -3.1,21.3 8,23.3 3.7,0.6 18.8,-3.9 23.6,-7 7.7,-5 7.2,-18.6 -0.9,-23.5 -4.5,-2.8 -9.7,-2.4 -19.5,1.2 z"
     id="path6"
     style="fill:#000000;stroke:none;stroke-width:0.1" />
  <path
     d="m 1734.7585,117.16181 c -2.6,0.3 -9.2,2.1 -20.4,5.4 -6.8,2 -31.5,13.9 -38.5,18.5 -9.4,6.3 -23.7,18.3 -27.2,22.8 -3.2,4.2 -4.3,11.9 -2.4,16.5 2.2,5.3 10.6,8.9 16.7,7.1 1.7,-0.5 7.3,-4.5 12.3,-9 15.4,-13.6 31.1,-22 55.5,-29.6 8.8,-2.8 12.8,-4.6 15.4,-7.1 3.5,-3.1 3.6,-3.5 3.6,-10.3 0,-6.5 -0.2,-7.3 -3,-10.1 -3.4,-3.3 -7.4,-4.7 -12,-4.2 z"
     id="path7"
     style="fill:#000000;stroke:none;stroke-width:0.1" />
  <path
     d="m 1817.2585,121.66181 c -4.2,1.6 -8.9,9.3 -9,14.7 0,6.6 2.8,9.4 15.5,15.4 20.1,9.5 33.2,20.5 47.2,39.4 9.3,12.5 12.6,14.8 19.6,13.9 8.3,-1.1 13,-7.1 12.5,-15.7 -0.3,-4.8 -1.1,-6.7 -5.7,-13.3 -15.7,-22.7 -35.3,-39.7 -58.6,-50.9 -9.5,-4.5 -15.8,-5.6 -21.5,-3.5 z"
     id="path8"
     style="fill:#000000;stroke:none;stroke-width:0.1" />
  <path
     d="m 1612.2585,238.46181 c -1.9,1.2 -4,2.9 -4.6,3.7 -0.7,0.9 -2.3,7.9 -3.7,15.7 -3.1,16.5 -4.1,42 -2.9,68.8 0.7,14.4 1.1,17.1 2.8,19.4 3.8,5 7.1,6.8 12.9,6.8 6.1,0 9.8,-2.1 12.9,-7.5 1.8,-3.1 1.9,-4.2 0.7,-24.4 -1.3,-23.7 -0.5,-41.6 2.9,-60.1 2.3,-13.1 1.7,-16.8 -3.5,-21.4 -3,-2.6 -4.4,-3.1 -8.8,-3.1 -3.5,0 -6.3,0.7 -8.7,2.1 z"
     id="path9"
     style="fill:#000000;stroke:none;stroke-width:0.1" />
  <path
     d="m 1910.2585,260.66181 c -2.2,0.8 -4.5,2.8 -6.5,5.7 -3.3,5 -3.5,6.7 -2,24.5 0.5,6.8 0.4,12.3 -0.4,16.9 -0.6,3.7 -1.6,12.8 -2.1,20.2 -0.6,8.3 -1.8,15.7 -2.9,19.2 -5.9,17.5 -2.5,27.2 9.7,27.9 6.4,0.5 10.7,-1.5 13.8,-6.2 2.2,-3.4 5.8,-18.5 8.5,-36 1.8,-11.4 2.3,-18.5 2.3,-38 0.1,-21.8 -0.1,-24.4 -1.8,-27.9 -3.4,-6.8 -10.3,-9.2 -18.6,-6.3 z"
     id="path10"
     style="fill:#000000;stroke:none;stroke-width:0.1" />
  <path
     d="m 958.65848,357.16181 c -9.8,0.8 -12.2,2.3 -15.3,9.6 -3,7.1 -2.4,11 2.5,15.7 l 3.5,3.4 h 23.2 c 26.3,0 34.00002,1.2 55.30002,8.6 6.3,2.1 12.9,3.9 14.7,3.9 9.6,0 17.3,-11.1 13.8,-20.2 -2.8,-7.5 -14.6,-12.5 -42.5,-18.3 -13,-2.7 -39.30002,-3.9 -55.20002,-2.7 z"
     id="path11"
     style="fill:#000000;stroke:none;stroke-width:0.1" />
  <path
     d="m 874.75848,400.26181 c -2.2,1 -5.6,4 -7.5,6.5 -1.9,2.6 -4.5,6 -5.7,7.5 -1.3,1.6 -2.3,3.3 -2.3,3.8 0,0.6 -1.3,3 -3,5.4 -1.6,2.4 -3,5.2 -3,6.1 0,0.9 -1.1,3 -2.5,4.6 -1.4,1.7 -2.5,4.1 -2.5,5.4 0,1.3 -0.9,4 -2,6.1 -1.1,2.1 -2.7,6.6 -3.5,10 -0.8,3.5 -2.1,7.7 -3,9.4 -1.5,3 -3.6,19.4 -3.8,30.4 -0.2,6.7 1.9,10.4 7.1,12.6 6.7,2.8 15.4,-0.3 18.7,-6.7 0.8,-1.5 1.9,-5.8 2.5,-9.6 3.9,-25.5 11.4,-45.5 23.6,-63.2 5.4,-7.7 6.8,-10.6 7.2,-14.3 1.1,-11.7 -9.7,-19.1 -20.3,-14 z"
     id="path12"
     style="fill:#000000;stroke:none;stroke-width:0.1" />
  <path
     d="m 1635.5585,410.36181 c -7.2,1.6 -12.3,7.6 -12.3,14.3 0,2.1 1.1,6.4 2.5,9.7 1.4,3.3 2.5,6.4 2.5,7.1 0,1.2 4.8,12.8 8.5,20.5 1.4,2.8 2.5,5.6 2.5,6.2 0,0.7 2.2,5.1 4.9,9.9 2.6,4.9 5.2,9.9 5.6,11.3 0.4,1.4 1.8,4.1 3.1,6 1.3,1.9 2.4,4 2.4,4.7 0,0.6 1,2.4 2.3,4 1.2,1.5 3,4.5 4,6.6 4.6,10.1 19.7,10.4 25.7,0.5 3.2,-5.3 2.6,-10.5 -2,-19 -8.5,-15.3 -23.1,-45.9 -29,-60.8 -3.4,-8.5 -6.9,-16.3 -7.8,-17.3 -3.2,-3.5 -7.9,-4.9 -12.9,-3.7 z"
     id="path13"
     style="fill:#000000;stroke:none;stroke-width:0.1" />
  <path
     d="m 1108.4585,421.06181 c -4,1.9 -5.7,4.5 -6.6,9.5 -1.2,6.8 0.3,11.6 5.6,17.7 6.3,7.1 15.4,19 19.5,25.6 1.7,2.7 4.3,6.9 5.7,9.1 1.4,2.3 2.6,4.7 2.6,5.4 0,0.7 1,2.9 2.2,4.9 2.2,3.5 3.6,6.8 8,19.4 2.7,7.5 6.3,10.2 13.5,10.2 7.8,0 13.9,-5.4 15,-13.1 1,-7.4 -11.5,-36.3 -23.9,-55.5 -7.4,-11.5 -18.2,-25.1 -24.2,-30.7 -4,-3.7 -5.1,-4.2 -9.3,-4.2 -2.7,0 -6.3,0.8 -8.1,1.7 z"
     id="path14"
     style="fill:#000000;stroke:none;stroke-width:0.1" />
  <path
     d="m 1866.7585,429.86181 c -4,2.7 -8.5,8.2 -11.6,14 -1.4,2.8 -2.7,4.8 -9.9,15.5 -1.4,2 -3.4,5 -4.5,6.7 -3.7,5.5 -7,9.4 -19.4,23.1 -6.8,7.5 -13,15.1 -13.7,16.9 -1.7,4 -1.8,11 -0.1,14.3 2.9,5.8 13.7,7.8 19.8,3.7 4.1,-2.8 19.3,-19.6 30.5,-33.8 11,-14 26.7,-37.5 28.9,-43.2 2.3,-6 1.4,-10.8 -2.9,-15.4 -2.7,-2.9 -4.1,-3.6 -8.2,-4 -4.1,-0.4 -5.6,0 -8.9,2.2 z"
     id="path15"
     style="fill:#000000;stroke:none;stroke-width:0.1" />
  <path
     d="m 1743.9585,558.36181 c -6,3.7 -7.3,4 -14.9,4.3 -11.5,0.5 -13.2,1.5 -16.5,9.9 -3.4,8.7 -6.2,11.1 -24.6,20.7 -19.8,10.3 -21.3,11.4 -22.6,16.6 -3,11.8 1.6,19.5 11.7,19.5 4.9,0 10.9,-2.8 34.7,-16.4 8.8,-5 16.3,-9.1 16.7,-9.1 0.4,0 9,7.9 19,17.6 31.1,30 35.2,33 42.5,31.3 7.7,-1.8 12.3,-7.5 12.3,-15.4 0,-5.8 -1.9,-8.8 -9.7,-15.4 -10.2,-8.7 -33,-30.3 -35.2,-33.5 l -2,-2.8 4.4,-3.2 c 4.9,-3.5 6.4,-5.7 7.6,-10.9 1,-4.8 -0.8,-10.2 -4.8,-13.9 -5,-4.8 -9.8,-4.6 -18.6,0.7 z"
     id="path16"
     style="fill:#000000;stroke:none;stroke-width:0.1" />
  <path
     d="m 856.75848,566.36181 c -1.6,0.5 -4.3,2.1 -6,3.4 -2.9,2.3 -3,2.6 -3,11.3 0,8.8 0,8.8 5.3,18.3 8.1,14.6 19.8,29.4 34.5,43.6 16.1,15.7 21.4,19.4 27.5,19.4 9.3,0 15.6,-6.1 15.6,-15 0,-6.3 -2.1,-9.2 -12.9,-18.2 -19.4,-16.3 -29.9,-29.5 -44.9,-57 -2.8,-5.2 -9.8,-7.7 -16.1,-5.8 z"
     id="path17"
     style="fill:#000000;stroke:none;stroke-width:0.1" />
  <path
     d="m 1160.9585,583.56181 c -1.6,1.1 -4.1,4.8 -5.7,8.2 -2.4,5.2 -3,8 -3.8,19.1 -0.6,8.4 -1.5,14.2 -2.5,16.2 -0.9,1.6 -2.1,5.8 -2.6,9.1 -0.5,3.3 -1.6,7.1 -2.4,8.4 -0.8,1.3 -2,4.5 -2.5,7.3 -0.6,2.7 -3.1,9.4 -5.6,14.8 -5.5,11.8 -6.4,16.2 -4.2,20.5 3.7,7.2 11.6,9.8 19.1,6.2 5.3,-2.6 7,-5.1 12.8,-20 9.1,-23.2 14.9,-44.9 18.2,-67.9 1.6,-10.5 1.6,-11.6 0,-15.7 -2.4,-6.3 -5.5,-8.4 -12.4,-8.4 -4.1,0.1 -6.4,0.6 -8.4,2.2 z"
     id="path18"
     style="fill:#000000;stroke:none;stroke-width:0.1" />
  <path
     d="m 1585.2585,640.76181 c -5.2,1.9 -12.6,4.7 -16.5,6.4 -3.8,1.6 -10.1,4 -14,5.2 -3.8,1.2 -13.5,4.4 -21.5,7 -8,2.6 -17.1,5.5 -20.3,6.4 -4.8,1.5 -6.4,2.5 -9.7,6.7 -5.9,7.5 -5.2,14.2 2,20.3 4.9,4.1 9.7,3.6 32,-3.8 23.1,-7.5 59.6,-20.9 66.1,-24.2 7.5,-3.7 10.7,-12.2 7.5,-19.8 -3.5,-8.4 -10.3,-9.5 -25.6,-4.2 z"
     id="path19"
     style="fill:#000000;stroke:none;stroke-width:0.1" />
  <path
     d="m 989.85848,675.86181 c -2.2,0.8 -5.5,3 -7.4,4.9 -3,2.9 -3.6,4.3 -4,8.8 -0.4,4.8 -0.1,5.8 2.3,8.6 1.5,1.8 4,3.9 5.5,4.7 16.40002,8.5 85.50002,26.7 94.70002,25 4.4,-0.8 9.9,-5.7 11.3,-10.1 2.1,-6.3 -0.6,-14.1 -5.9,-16.8 -3,-1.5 -27.2,-7.6 -40.1,-10.1 -1.9,-0.4 -14.1,-4.3 -27.1,-8.6 -13,-4.3 -24.00002,-7.9 -24.50002,-7.9 -0.5,0.1 -2.7,0.7 -4.8,1.5 z"
     id="path20"
     style="fill:#000000;stroke:none;stroke-width:0.1" />
  <path
     d="m 1854.7585,675.36181 c -1.1,0.4 -3.7,2.6 -5.8,4.9 -3,3.3 -3.7,4.9 -3.7,8.2 0,8.9 4.1,12.3 32.2,26.2 27.9,13.8 55.6,24.7 62.6,24.7 12.9,0 19.7,-15.3 10.8,-24.6 -2.2,-2.3 -6.4,-4.5 -14.1,-7.4 -17.9,-6.9 -40,-16.9 -55.7,-25.2 -12.6,-6.7 -15.3,-7.8 -19.5,-7.7 -2.6,0 -5.7,0.4 -6.8,0.9 z"
     id="path21"
     style="fill:#000000;stroke:none;stroke-width:0.1" />
  <path
     d="m 1423.2585,689.46181 c -1.9,0.4 -7.5,1.5 -12.5,2.4 -10.4,1.8 -18.1,3.3 -35.5,6.8 -6.9,1.4 -15.9,2.8 -20,3.2 -11,1 -20.1,3.3 -22.7,5.7 -3.2,3 -4.8,11.1 -3.4,16.6 1.8,6.6 5.5,8.5 15.6,7.9 13.2,-0.8 68,-10 85,-14.3 9,-2.2 13.5,-7.4 13.5,-15.6 0,-10.5 -8.2,-15.7 -20,-12.7 z"
     id="path22"
     style="fill:#000000;stroke:none;stroke-width:0.1" />
  <path
     d="m 1166.0585,710.36181 c -2.6,0.5 -6.7,2.2 -9.2,3.9 -4.1,2.8 -4.5,3.5 -5.1,8.3 -0.7,6 0.2,9.3 3.6,12.5 4.8,4.4 6.3,4.6 54,5.1 44.3,0.4 45.7,0.4 50.2,-1.6 5.9,-2.6 8.7,-7 8.7,-13.5 0,-2.6 -0.7,-6.1 -1.5,-7.7 -3,-5.7 -3.2,-5.7 -49.5,-6.3 -23.4,-0.2 -43.4,-0.7 -44.5,-1 -1.1,-0.3 -4.1,-0.1 -6.7,0.3 z"
     id="path23"
     style="fill:#000000;stroke:none;stroke-width:0.1" />
  <path
     d="m 2283.7585,712.96181 c -13.9,3.4 -22.8,5.4 -26.5,6 -2.5,0.3 -8.8,1.9 -14,3.4 -11.7,3.4 -28.7,7 -33.3,7 -1.9,0 -6.5,0.9 -10.1,2 -5.8,1.8 -6.8,2.5 -9.1,6.4 -3,5.2 -3.1,8.7 -0.2,14.6 4.1,8.4 7.9,8.7 36.2,2.9 21.5,-4.3 32.3,-6.9 53.5,-12.7 11.8,-3.2 13.9,-4.1 17.1,-7.3 5.6,-5.6 6.2,-13.5 1.5,-19.4 -1.9,-2.4 -3.1,-2.9 -7.7,-3.1 -3,-0.1 -6.3,-0.1 -7.4,0.2 z"
     id="path24"
     style="fill:#000000;stroke:none;stroke-width:0.1" />
  <path
     d="m 2017.8585,735.46181 c -4.1,3.5 -5.8,8.6 -4.9,14.4 0.8,5.7 1.9,7.2 6.1,9.4 6.6,3.3 39.9,6.8 73.8,7.8 21.3,0.6 22.3,0.5 26.6,-1.5 5.1,-2.5 8.8,-8.1 8.8,-13.3 0,-4.4 -2.9,-10.1 -5.8,-11.5 -1.3,-0.6 -10.3,-1.4 -20,-1.8 -25.4,-1 -42.1,-2.4 -55.1,-4.6 -6.2,-1.1 -14.7,-2 -18.7,-2 -6.8,0 -7.6,0.2 -10.8,3.1 z"
     id="path25"
     style="fill:#000000;stroke:none;stroke-width:0.1" />
  <path
     d="m 1095.2585,742.96181 c -3.7,1.6 -9,6.1 -9,7.7 0,0.5 -1.2,2.4 -2.7,4.2 -1.6,1.8 -3.9,5 -5.3,7 -5.6,8.1 -28.8,34.5 -41,46.5 -9.8,9.7 -11.3,17.4 -4.7,24.6 3.7,4.1 9.3,5.3 15,3.5 6.5,-2.2 37.6,-35.9 58,-62.8 10.6,-14 11.5,-17 7.7,-24.8 -3.4,-7 -10.3,-9.3 -18,-5.9 z"
     id="path26"
     style="fill:#000000;stroke:none;stroke-width:0.1" />
  <path
     d="m 219.65848,802.76181 c -9.1,4 -10.6,17.9 -2.8,25.2 16.7,15.8 66.7,51.9 75.5,54.6 5.2,1.5 10.3,0.3 14.3,-3.5 5.5,-5.3 6.5,-12.4 2.7,-19.6 -0.7,-1.2 -7.8,-6.4 -15.9,-11.7 -16.7,-10.9 -36.5,-25.6 -49.7,-36.9 -4.9,-4.2 -10,-8.1 -11.3,-8.6 -3.3,-1.3 -9.2,-1.1 -12.8,0.5 z"
     id="path27"
     style="fill:#000000;stroke:none;stroke-width:0.1" />
  <path
     d="m 967.25848,862.66181 c -3,1.3 -9.5,4.5 -14.5,7.1 -23.8,12.8 -46.2,23.6 -51.9,25 -4.3,1.1 -15.4,6.7 -18.2,9.2 -2.1,2.1 -2.4,3.1 -2.4,9.9 0,7.1 0.2,7.9 2.8,10.5 3.6,3.5 9,4.7 14.5,3 13.2,-3.9 57.7,-25 75.7,-35.8 7.9,-4.8 9.9,-6.4 11.8,-10.2 4.6,-9 0.2,-18.8 -9.4,-20.5 -1.8,-0.3 -4.9,0.3 -8.4,1.8 z"
     id="path28"
     style="fill:#000000;stroke:none;stroke-width:0.1" />
  <path
     d="m 372.85848,894.46181 c -2.9,0.5 -5,1.8 -7.8,4.7 -3.4,3.7 -3.8,4.6 -3.8,9.6 0,8.6 2.9,11.3 19.3,17.7 22.2,8.7 67.1,23 76.6,24.5 8.7,1.3 18,-8.2 16.6,-17 -0.7,-4.7 -3.7,-9.1 -7.3,-11 -1.5,-0.8 -7.9,-2.8 -14.2,-4.4 -13,-3.5 -48.7,-15.5 -60,-20.2 -9.1,-3.8 -14.2,-4.8 -19.4,-3.9 z"
     id="path29"
     style="fill:#000000;stroke:none;stroke-width:0.1" />
  <path
     d="m 793.75848,928.46181 c -7.1,1.5 -17.9,3.6 -24,4.5 -28.9,4.3 -32.6,4.9 -47.1,7.6 -6.9,1.2 -13.1,5.3 -14.5,9.6 -2.6,7.8 1.3,15.8 8.9,18.3 3.7,1.2 10.2,0.6 36.2,-3.2 27.4,-4 59.7,-10.8 63.7,-13.4 8.6,-5.7 8.2,-20.4 -0.6,-25 -4,-2 -7.2,-1.8 -22.6,1.6 z"
     id="path30"
     style="fill:#000000;stroke:none;stroke-width:0.1" />
  <path
     d="m 538.45848,941.36181 c -4,2.5 -5.2,5.4 -5.2,13.1 0,7 1,9.3 4.9,11.4 5.6,2.9 57.9,7.5 85,7.5 12.8,0 15,-0.3 17.9,-2 10,-6.1 9.5,-22.3 -0.8,-25.6 -1.9,-0.6 -16.8,-1.7 -33,-2.4 -16.2,-0.6 -33.1,-1.8 -37.5,-2.6 -4.4,-0.8 -12.5,-1.4 -18,-1.4 -8.2,0 -10.6,0.4 -13.3,2 z"
     id="path31"
     style="fill:#000000;stroke:none;stroke-width:0.1" />
  <path
     d="m 1512.7559,911.70211 c -25.0798,6.53863 -39.3528,25.98242 -39.3528,53.51341 0,27.53112 16.5159,50.41618 39.7606,55.06208 21.4095,4.3017 43.8384,-1.3766 55.4607,-14.2817 9.7872,-10.84029 13.6613,-22.71305 13.6613,-41.29653 0,-35.96245 -17.5354,-54.71796 -50.975,-54.37382 -7.3404,0 -15.7003,0.68829 -18.5548,1.37656 z"
     id="path32"
     style="fill:#000000;stroke:none;stroke-width:0.18731" />
  <path
     d="m 536.27883,1115.0323 c -32.82789,4.6898 -69.12209,14.8848 -88.49259,24.672 -34.25519,17.3315 -68.71429,46.4892 -92.57058,77.8898 -20.79781,27.5264 -23.4485,32.2161 -39.1488,69.122 -20.18609,47.3048 -24.0602,125.3985 -9.37939,181.471 4.6897,17.3315 24.26409,62.5973 32.62399,74.8313 22.83679,33.2357 43.43069,55.2568 69.52989,74.4235 30.1772,21.8173 60.96609,35.2747 100.72659,44.0424 51.38278,11.4184 125.60238,1.6312 165.36287,-21.6134 20.18615,-11.8262 38.12927,-16.7198 42.61508,-11.6223 2.03901,2.6507 2.65076,30.7889 2.85461,134.37 0.4078,124.7869 0.20396,131.3117 -3.26241,134.7779 -4.48581,4.4858 -11.82622,3.4664 -19.77828,-2.6506 -21.4095,-16.7199 -48.32429,-32.624 -70.34549,-41.5956 -7.74819,-3.0586 -18.351,-7.3404 -23.4485,-9.3794 -23.24459,-9.7872 -70.54938,-18.3511 -100.72659,-18.3511 -26.30309,0 -46.48918,11.4185 -56.48028,31.8085 -6.7287,14.0691 -6.117,36.2942 1.22339,48.936 6.5248,11.2145 9.58331,14.2729 21.2056,22.0211 8.156,5.3014 11.01059,5.9132 30.585,6.7288 70.14159,2.8546 135.59348,36.2941 176.37347,90.3277 27.32261,36.0902 42.41124,76.8703 45.87749,123.3595 1.2234,15.7002 3.26241,29.7693 5.30141,34.6629 4.07801,9.7872 15.90423,22.6329 25.07969,26.9149 3.67021,1.835 7.54426,4.8936 8.76766,6.9325 2.65077,5.0975 22.42905,5.5053 26.50706,0.6117 1.42724,-1.6312 7.54425,-6.5248 13.66127,-10.3988 6.93261,-4.6898 13.66127,-11.6224 18.14707,-18.3511 6.52482,-10.195 6.93262,-12.234 8.76778,-36.2941 0.8156,-13.8653 2.24285,-26.3031 2.8546,-27.3227 0.61165,-1.0194 2.65065,-9.5833 4.4857,-18.9627 1.6312,-9.1754 4.07801,-17.7392 5.09757,-18.9627 1.01944,-1.0195 1.83504,-3.2624 1.83504,-5.0975 0,-7.1365 21.40949,-44.654 35.68252,-62.3933 15.29247,-19.1667 42.20732,-42.6151 58.7232,-51.7906 22.63289,-12.234 35.27471,-18.351 38.33316,-18.351 2.039,0 4.07801,-0.8156 4.89361,-1.8352 0.61176,-1.0194 6.32097,-3.0584 12.84578,-4.2819 6.32086,-1.2234 17.12748,-3.4662 23.85628,-5.0974 6.7287,-1.6312 21.4095,-3.4664 32.4201,-4.078 18.3509,-1.0196 21.4095,-1.8352 31.6045,-8.156 13.4573,-8.156 18.1471,-14.0691 24.468,-30.7889 5.3014,-14.2731 4.6897,-22.2251 -2.8546,-38.741 -6.1171,-13.2536 -18.3511,-23.6524 -33.2358,-28.5461 -11.2144,-3.4662 -13.0495,-3.4662 -45.2657,-0.2038 -35.68254,3.6702 -60.35444,9.3794 -86.24973,19.5743 -26.91474,10.6029 -57.9076,27.7305 -81.55993,44.2464 -10.39898,7.5442 -16.71984,8.5638 -23.04081,4.078 -3.87405,-2.8546 -3.87405,-8.9716 -3.87405,-368.6512 -0.20384,-253.2437 -0.8156,-368.2433 -2.4468,-374.1565 -4.28185,-17.3314 -24.67189,-35.4785 -42.81897,-38.5371 -19.98224,-3.0584 -43.43073,9.5834 -54.6452,29.5655 -8.76766,15.9043 -13.66127,17.1277 -32.21615,7.3404 -29.15774,-15.0885 -33.43965,-16.9236 -58.11154,-25.0797 -13.66131,-4.6896 -32.4201,-9.3794 -41.59559,-10.6028 -15.9042,-1.835 -49.5477,-2.4468 -60.7622,-0.8156 z m 68.10259,116.427 c 28.546,9.3794 50.3633,24.0601 78.09369,53.6256 8.156,8.5638 14.8847,18.1471 18.96271,27.5265 3.6702,7.7482 8.35986,17.9432 10.39886,22.4291 6.52481,13.8652 8.35997,30.5849 7.54437,66.2674 -0.8156,31.1967 -1.2234,34.6631 -6.52481,47.7126 -13.04963,31.8085 -28.34213,52.1984 -56.88812,75.2391 -20.39001,16.516 -25.69141,19.5744 -45.8775,27.1187 -33.84739,12.8458 -84.41459,8.5638 -118.66979,-9.7871 -38.53709,-20.7979 -72.38448,-64.0246 -83.80288,-106.4358 -6.5248,-24.4681 -6.5248,-65.452 0,-87.8809 2.6507,-8.7678 6.5248,-19.3705 8.5638,-23.2447 2.2429,-4.078 3.8741,-7.952 3.8741,-8.7676 0,-0.8156 2.8546,-5.5054 6.11699,-10.195 3.46631,-4.8937 7.74821,-11.0107 9.58331,-13.8653 9.7872,-15.0886 37.9254,-38.9449 57.70369,-49.3438 34.2552,-18.147 75.44299,-22.0211 110.92158,-10.3988 z"
     id="path33"
     style="fill:#000000;stroke:none;stroke-width:0.2039" />
  <path
     d="m 963.04152,1117.4791 c -20.1862,7.1366 -31.1967,18.7589 -36.29427,38.3333 -4.48581,17.7393 -4.48581,258.9529 0.20396,303.1993 4.68965,46.4892 18.96268,84.2107 44.45017,117.6502 12.03007,16.1081 17.73928,22.0211 38.12932,39.7605 13.8652,12.234 35.4786,24.468 68.1026,38.741 27.9343,12.234 81.56,15.0886 119.2815,6.3209 34.0513,-7.9521 53.8296,-16.312 79.1131,-33.2357 37.9255,-25.4875 63.0052,-55.4608 84.0069,-100.3188 3.4662,-7.1365 6.117,-14.0691 6.117,-15.2925 0.2038,-1.2234 1.6312,-5.913 3.2624,-10.3989 8.9716,-24.468 9.5832,-35.8864 10.3988,-188.1996 0.6117,-102.9696 0.2039,-148.6431 -1.4272,-156.5952 -2.6508,-13.0496 -11.4184,-25.4875 -24.2642,-34.4591 -7.7481,-5.5054 -10.3989,-6.117 -23.2445,-6.117 -17.3315,0 -26.7109,3.874 -38.5372,16.1081 -15.2924,16.108 -14.8846,12.03 -14.069,174.5384 0.6116,143.1377 0.6116,143.9533 -3.8742,160.0614 -6.1169,22.6329 -17.3315,40.5761 -35.8864,57.9076 -36.4981,34.0513 -83.3951,43.4307 -132.331,26.3031 -6.7287,-2.4468 -13.6613,-5.5053 -15.2925,-6.7287 -1.6312,-1.4272 -5.7092,-4.078 -9.1755,-5.7092 -13.8652,-7.3404 -36.9059,-34.2552 -44.4503,-52.4022 -11.2144,-27.1187 -10.6027,-14.477 -11.2144,-182.0828 l -0.6117,-154.5562 -5.7092,-9.1754 c -14.8848,-23.2447 -34.45909,-31.4006 -56.68418,-23.6525 z"
     id="path34"
     style="fill:#000000;stroke:none;stroke-width:0.2039" />
  <path
     d="m 2438.6656,1115.8479 c -26.9148,3.2624 -69.7338,15.2926 -89.5121,25.4875 -71.9767,36.2943 -125.8063,106.232 -143.9533,186.7724 -5.3015,22.4291 -5.9132,29.1577 -5.9132,60.9661 0,35.2747 1.2234,45.4697 9.7872,81.56 5.0975,21.4095 21.6135,58.5193 33.8474,75.6469 3.4663,4.8936 8.3599,12.234 11.0106,16.312 13.2536,19.7783 64.4324,64.8401 80.5405,70.7533 1.8351,0.6117 5.5053,2.6507 8.3599,4.2819 2.6507,1.8351 7.7481,4.2819 11.2145,5.5053 3.2624,1.2234 13.0496,5.0975 21.4095,8.5637 26.9147,10.8068 45.0619,13.6614 89.7159,13.6614 51.3828,0 77.0743,-4.2819 113.1646,-18.7588 36.9059,-14.8847 76.8703,-42.819 89.9199,-62.8012 3.2623,-4.8936 4.2819,-29.7694 1.6312,-38.1293 -0.6118,-2.6507 -4.282,-8.3599 -7.9522,-12.8457 -6.9326,-8.7677 -21.2055,-15.2925 -32.8279,-15.2925 -11.6222,0 -28.3421,6.5248 -44.654,17.5355 -8.9716,5.913 -22.0212,13.2534 -28.9538,16.108 -15.2925,6.117 -56.8881,13.2535 -77.6859,13.2535 -15.4965,0 -53.4218,-7.7482 -67.287,-13.6613 -20.1861,-8.7676 -30.9928,-14.4768 -41.5956,-22.429 -13.6613,-10.6028 -35.4786,-33.8474 -39.5566,-42.4112 -1.4273,-3.2624 -3.6702,-7.5442 -4.6897,-9.1754 -5.7091,-8.5639 -11.2145,-24.6719 -12.0301,-34.867 -0.8156,-11.4184 -0.8156,-11.4184 5.7092,-13.8652 4.8936,-1.6312 57.4998,-2.2428 186.3646,-2.2428 202.0648,0 191.6659,0.8156 208.3858,-15.2926 9.1754,-8.7677 15.0885,-23.6524 15.0885,-37.9254 0,-20.7977 -11.6223,-73.4039 -20.5939,-92.7745 -2.2428,-4.4858 -3.874,-9.3793 -3.874,-10.8067 0,-1.4272 -1.6312,-5.0974 -3.6702,-7.952 -2.0391,-3.0586 -4.2819,-6.9326 -4.8937,-8.7678 -3.874,-10.3989 -26.0991,-40.9838 -43.0229,-58.927 -51.7906,-55.053 -137.8363,-86.2497 -213.4832,-77.4821 z m 45.8774,95.8331 c 33.2357,7.7482 35.4787,8.5638 62.1896,21.0017 25.2835,11.8262 65.044,45.2658 72.3845,60.7622 1.6312,3.874 6.7286,12.8457 11.2144,20.1861 4.282,7.3404 7.9522,15.2924 7.9522,17.5353 0.4078,10.195 4.6897,9.9912 -164.5473,9.9912 -103.7851,0 -159.6537,-0.8156 -162.3044,-2.039 -3.2624,-1.6312 -4.4858,-4.4858 -4.8936,-11.2145 -0.6117,-7.5444 1.0195,-12.438 9.1755,-28.5461 8.1559,-15.9042 13.2535,-22.8368 29.1577,-38.9449 10.6028,-10.8066 23.0407,-21.6133 27.5265,-24.0601 4.4857,-2.4468 9.5833,-5.0976 11.2145,-6.117 12.0301,-7.3404 29.5655,-13.4575 53.014,-18.5549 10.195,-2.243 38.3332,-2.243 47.9164,0 z"
     id="path35"
     style="fill:#000000;stroke:none;stroke-width:0.2039" />
  <path
     d="m 1514.387,1119.1103 c -13.4574,4.078 -30.585,20.7979 -34.459,33.4397 -3.8742,13.2535 -3.8742,463.0568 0,477.9415 5.5052,21.0017 25.4875,35.8864 47.7125,35.8864 25.6914,0 44.4502,-15.0885 51.3828,-41.1878 3.2624,-11.6223 3.4663,-33.2357 2.8546,-238.1552 -0.6117,-216.134 -0.8156,-225.7172 -4.4858,-236.1161 -7.1365,-19.5744 -27.3226,-35.0709 -45.0619,-34.8669 -4.4858,0 -12.6418,1.4272 -17.9432,3.0584 z"
     id="path36"
     style="fill:#000000;stroke:none;stroke-width:0.2039" />
  <path
     d="m 3057.2981,1119.1103 c -20.5939,3.4664 -52.8101,13.6614 -69.1221,21.8173 -13.8652,6.9326 -31.1967,17.5354 -35.6825,22.0213 -10.3989,10.195 -21.4095,12.8456 -26.9148,6.3208 -1.8351,-1.835 -3.8741,-7.1364 -4.6897,-11.6223 -2.4468,-14.6808 -14.0691,-29.3615 -27.9343,-35.6825 -25.2836,-11.4183 -58.3154,1.4274 -70.7533,27.1187 -3.874,8.36 -4.078,13.4575 -4.6896,151.2939 -0.4078,78.5015 -0.204,185.9567 0.4078,238.9707 l 1.0194,96.0369 6.117,8.9716 c 3.4664,4.6897 10.8067,11.8261 16.312,15.2925 9.1755,6.117 11.6223,6.7287 25.4875,6.7287 22.429,0 37.3138,-8.5638 48.3243,-27.9343 l 5.7092,-9.7872 1.0195,-117.2425 c 1.2234,-128.8648 0.2039,-117.6502 13.2535,-146.1963 1.6312,-3.4662 3.0586,-7.5443 3.0586,-9.1755 0,-1.6312 0.8156,-3.6702 1.835,-4.6896 1.0195,-1.2234 5.3014,-8.5638 9.3794,-16.312 4.2819,-7.9521 11.4185,-19.7783 15.9043,-26.5071 4.6896,-6.7287 10.8066,-15.9041 13.8651,-20.3899 6.7287,-9.7872 32.2162,-34.2553 44.858,-42.819 22.0212,-14.8848 38.9449,-20.594 77.0742,-25.2836 20.1861,-2.6507 26.9148,-6.9327 39.3527,-25.6915 6.9326,-10.6027 8.7677,-22.6329 5.7092,-38.537 -2.039,-10.6028 -3.8741,-14.477 -11.4184,-22.429 -15.9042,-17.3315 -37.1098,-21.2056 -77.482,-14.2731 z"
     id="path37"
     style="fill:#000000;stroke:none;stroke-width:0.2039" />
  <path
     d="m 1716.248,1124.8195 c -18.9627,6.9327 -34.8669,23.8563 -37.3137,39.3528 -2.039,14.069 0.2038,32.4201 5.3014,40.7799 2.2429,4.078 5.5053,10.6028 6.9326,14.6809 4.4858,12.234 33.6435,82.1716 37.7215,90.9393 5.7091,11.8262 15.9042,35.8865 17.5354,41.7995 0.8156,2.8546 3.0585,8.3599 5.0975,12.2341 2.039,3.874 6.1169,14.069 9.1755,22.4289 3.0584,8.36 8.3598,21.0018 11.4184,27.9343 3.2624,6.9326 5.9131,13.2536 5.9131,14.0692 0,1.4272 13.2534,32.2161 16.5158,37.9253 1.0196,2.039 5.5054,13.0497 10.1951,24.468 4.4858,11.6223 12.8456,31.1967 18.351,43.6347 5.5053,12.4378 9.9911,23.8562 9.9911,25.2835 0,1.4273 2.6507,8.7678 5.913,16.1081 8.7678,20.39 14.6808,35.0708 16.9238,43.0229 2.2429,7.952 12.8457,25.0797 20.1861,33.0317 9.7872,10.399 17.9431,13.8653 34.0513,13.8653 17.1275,0 24.6719,-3.2624 35.8864,-15.4963 7.1364,-7.7483 19.5744,-30.5851 19.5744,-35.8865 0,-1.6312 1.2234,-4.4858 2.8546,-6.7287 1.4272,-2.2429 5.3013,-10.6028 8.3599,-18.351 3.0584,-7.9521 6.7286,-17.1276 8.156,-20.3899 1.6312,-3.4664 5.7092,-13.0497 9.1754,-21.4096 3.4664,-8.3599 7.5443,-17.7393 9.1755,-20.7978 1.6312,-2.8546 3.0586,-6.5248 3.0586,-8.156 0,-1.4273 1.4272,-5.3014 3.2624,-8.7676 1.6312,-3.2624 5.913,-12.8458 9.1754,-21.4095 3.4664,-8.36 7.5443,-17.3316 9.1755,-19.7784 1.6312,-2.4468 2.8546,-5.7092 2.8546,-6.9325 0,-2.243 5.3014,-14.273 13.4574,-30.9929 1.6312,-3.2624 2.8546,-6.9326 2.8546,-8.156 0,-1.835 12.0301,-30.5849 21.4095,-51.3828 1.4274,-3.4662 7.5444,-17.1275 13.2535,-30.5849 5.7092,-13.4575 11.8262,-27.3227 13.4574,-30.9929 1.6312,-3.4662 2.8546,-7.3404 2.8546,-8.7677 0,-1.2234 1.8352,-5.7092 4.078,-9.7872 2.243,-4.078 7.7482,-16.7198 12.234,-27.9343 4.6897,-11.2144 10.1951,-23.8563 12.4379,-27.9343 2.039,-4.078 3.8742,-8.7676 3.8742,-10.195 0,-1.4272 1.4272,-5.5052 3.2623,-8.7677 6.5248,-12.234 11.6224,-28.9537 12.438,-41.1877 0.8156,-11.0106 0.2038,-13.8652 -4.6898,-22.4291 -8.156,-14.4768 -10.8067,-16.9236 -24.2641,-23.2445 -14.8847,-7.1366 -25.0797,-7.5444 -38.741,-1.0196 -16.7198,7.5444 -29.5655,27.7305 -45.2657,69.5299 -1.6312,4.4858 -4.6898,11.8262 -6.7288,16.312 -11.6223,25.2837 -14.6807,32.4202 -21.2055,49.9556 -4.078,10.6027 -9.1755,23.0407 -11.2145,27.5265 -8.156,16.7197 -16.516,36.2941 -16.516,38.1292 0,1.2234 -4.6896,11.8262 -10.3989,23.8564 -5.913,11.8261 -11.6222,24.8757 -13.2534,28.7498 -1.4274,3.8741 -5.7092,14.8848 -9.7872,24.2642 -3.8741,9.3793 -8.5639,21.8173 -10.3989,27.7303 -3.6702,12.6419 -12.6418,29.5655 -16.5159,30.9928 -7.5444,2.8546 -19.1666,-7.5443 -19.1666,-16.7197 0,-1.6312 -5.5054,-14.6809 -12.234,-28.7499 -6.7287,-14.0691 -12.2341,-26.7109 -12.2341,-27.9343 0,-1.4274 -1.835,-5.9132 -4.078,-10.1951 -2.2428,-4.078 -4.078,-8.5638 -4.078,-9.7872 0,-1.4272 -1.835,-6.117 -3.874,-10.8066 -2.2429,-4.6898 -8.3599,-18.5549 -13.4575,-30.789 -5.0974,-12.4378 -10.6028,-25.2836 -12.03,-28.546 -1.6312,-3.4663 -5.3014,-11.6223 -7.9521,-18.3509 -15.4964,-37.5176 -22.429,-53.8296 -26.0992,-61.374 -2.039,-4.6896 -3.8741,-9.1755 -3.8741,-9.9911 0,-0.8156 -3.0586,-7.952 -6.9326,-15.9042 -3.6702,-8.1559 -9.7872,-21.8173 -13.2535,-30.7888 -3.4663,-8.7678 -9.1756,-19.5744 -12.438,-23.8564 -12.4378,-15.4963 -33.8473,-23.0407 -49.5476,-17.3315 z"
     id="path38"
     style="fill:#000000;stroke:none;stroke-width:0.2039" />
  <path
     style="opacity:1;fill:#fdd650;fill-opacity:1;stroke-width:1.45688"
     d="m 2813.5683,724.58389 c -53.2421,-33.40245 -99.2133,-91.79085 -119.1881,-151.38188 -14.7789,-44.09017 -17.0182,-103.33726 -5.8338,-154.34843 4.362,-19.89454 12.1187,-41.29391 16.1046,-44.42915 5.7972,-4.5601 62.9776,-21.6834 66.0556,-19.78108 0.775,0.47896 5.3198,6.57884 10.0996,13.55527 12.025,17.55142 28.293,34.93179 34.1059,36.43809 10.2725,2.66185 18.4661,-3.2997 18.4661,-13.43563 0,-5.45516 -1.1652,-7.40508 -12.0559,-20.17483 -6.6307,-7.77481 -13.1719,-16.02517 -14.5358,-18.33415 l -2.4799,-4.19814 17.8138,-0.83525 c 9.7975,-0.45939 23.0097,-0.38342 29.3602,0.1688 l 11.5464,1.00406 2.5955,13.63613 c 3.7245,19.56824 7.8635,24.5762 19.0698,23.07313 10.6114,-1.42328 14.4589,-8.86031 11.5763,-22.37597 -0.8225,-3.8565 -1.2592,-7.24809 -0.9704,-7.53685 0.9323,-0.93232 17.1685,5.65645 28.6207,11.61451 51.1193,26.59494 87.6457,86.14767 94.6756,154.35911 3.1552,30.61463 -1.6045,58.16168 -14.7203,85.19543 -15.9179,32.8092 -44.7868,62.50898 -84.5398,86.97315 -23.4096,14.40638 -79.4609,38.95065 -88.9508,38.95065 -2.1486,0 -9.568,-3.59025 -16.8153,-8.13697 z m 66.8891,-134.66048 c 21.1688,-6.53835 38.1014,-26.2557 39.9376,-46.50562 0.9219,-10.16655 -0.9286,-14.14568 -7.9407,-17.07555 -9.8699,-4.12389 -17.8396,0.86535 -21.501,13.46017 -3.8285,13.1694 -13.6145,21.52238 -27.3401,23.33618 -6.2606,0.8274 -7.3154,0.42412 -27.7538,-10.6101 -5.2008,-2.80778 -10.3681,-1.5399 -15.7798,3.8718 -5.8473,5.8473 -5.7117,12.765 0.3864,19.71037 13.2185,15.05498 37.7114,20.69438 59.9914,13.81275 z m -114.8764,-3.4083 c 6.3375,-2.90145 8.0496,-4.4916 9.4703,-8.79667 3.3634,-10.19115 -2.7599,-19.82378 -12.6016,-19.82378 -6.4659,0 -20.6717,5.51145 -24.7706,9.61035 -5.1609,5.16098 -4.6742,14.0757 1.0828,19.8327 4.1133,4.11338 5.0082,4.386 11.7675,3.58545 4.0236,-0.47647 10.7968,-2.46015 15.0516,-4.40805 z m 28.7667,-56.38252 c 4.041,-4.04108 4.3767,-5.08305 3.6383,-11.29088 -1.1499,-9.66691 -9.6467,-32.34238 -13.6007,-36.29636 -2.4648,-2.46474 -4.9988,-3.32253 -9.8153,-3.32253 -5.4615,0 -7.0916,0.71186 -10.2643,4.48243 -2.0745,2.46534 -3.7718,6.03729 -3.7718,7.93766 0,4.38559 6.7573,25.94471 10.3468,33.0113 5.5443,10.91505 15.667,13.27823 23.467,5.47838 z m 182.9343,-17.38515 c 10.4406,-3.62697 14.8967,-8.42575 14.8967,-16.042 0,-12.5391 -10.5736,-17.24456 -26.0609,-11.59761 -11.9615,4.36139 -16.7964,9.9282 -15.7029,18.08014 1.5894,11.85015 10.8196,15.13428 26.8671,9.55947 z m -53.9643,-27.08574 c 6.2472,-4.04037 5.9326,-14.51099 -0.9882,-32.89188 -6.6064,-17.54587 -13.6482,-22.85349 -23.8793,-17.99853 -5.7407,2.72414 -7.3426,5.95615 -7.0281,14.18044 0.237,6.19796 4.8717,20.53596 9.8588,30.49907 4.8664,9.72213 13.0441,12.02696 22.0368,6.2109 z"
     id="path62" />
  <path
     style="opacity:1;fill:#fdd650;fill-opacity:1;stroke-width:1.45688"
     d="m 2666.4172,759.19166 c -15.4733,-12.01282 -41.7114,-38.6913 -53.9742,-54.88005 -44.0232,-58.11735 -60.1396,-105.60427 -60.2184,-177.4332 -0.028,-25.91597 1.7493,-45.16504 5.9487,-64.40977 4.9751,-22.79911 4.1956,-21.61817 20.7375,-31.42003 16.4242,-9.73217 54.8741,-29.59248 54.8741,-28.34385 0,0.43829 -1.3278,5.54169 -2.9507,11.34088 -6.582,23.52029 -9.0117,45.02628 -9.0093,79.74603 0.01,69.21537 13.6946,116.98369 48.7924,170.25244 24.2305,36.77505 49.6391,63.56843 85.4246,90.08033 0.3338,0.24735 0.2888,0.76792 -0.1001,1.1568 -1.4533,1.45335 -46.8639,9.94695 -69.8567,13.06597 -6.5705,0.89138 -6.9612,0.70943 -19.6679,-9.15555 z"
     id="path63" />
  <path
     style="opacity:1;fill:#fdd650;fill-opacity:1;stroke-width:1.45688"
     d="m 2581.9664,764.12711 c -30.3672,-7.85152 -52.5897,-19.79955 -73.0688,-39.28605 -15.9059,-15.13485 -27.7268,-31.9623 -36.4254,-51.85245 -23.4784,-53.68522 -21.6029,-103.2939 5.6324,-148.98052 7.6308,-12.80068 21.4079,-30.94091 22.5963,-29.75252 0.3626,0.36257 -0.818,8.1098 -2.6236,17.21606 -2.6971,13.60303 -3.2893,21.49528 -3.3195,44.23768 -0.037,27.98295 1.1109,38.55848 6.6433,61.1892 8.8522,36.21113 23.8883,68.94068 44.8429,97.6113 8.3167,11.37915 31.3426,35.37533 44.2741,46.14 4.6491,3.87 7.5993,7.0041 6.5561,6.96473 -1.0433,-0.0398 -7.8417,-1.60875 -15.1078,-3.48743 z"
     id="path64" />
  <path
     style="opacity:1;fill:#d6e9ff;fill-opacity:1;stroke-width:1.45688"
     d="m 2571.229,385.97282 c -15.3282,-15.69747 -28.4102,-39.28991 -34.5615,-62.32947 -6.5797,-24.64343 -4.8116,-59.6582 4.1705,-82.59194 6.6745,-17.04179 22.6094,-35.48518 36.8744,-42.6791 18.0461,-9.10071 43.5515,-12.24393 58.2578,-7.17952 8.0074,2.75752 22.8382,13.2223 27.894,19.68232 3.4902,4.45965 8.784,18.15867 15.0282,38.88825 2.1722,7.21158 5.1252,15.37445 6.5622,18.1397 5.2773,10.15516 2.0846,56.81935 -5.2445,76.65352 -3.4489,9.33361 -8.8227,14.49003 -18.7409,17.98285 -11.6469,4.1016 -13.637,2.82081 -14.7556,-9.49669 -0.5014,-5.52129 -0.9931,-15.86548 -1.0927,-22.98708 -0.2808,-20.08985 -4.4452,-50.80518 -7.1825,-52.9757 -3.3986,-2.69491 -8.2173,-2.21367 -11.2362,1.12217 -3.132,3.46079 -3.1183,9.25332 0.1031,43.54683 2.6151,27.84018 2.7781,52.78307 0.3606,55.2005 -0.9615,0.96154 -3.8984,1.74826 -6.5263,1.74826 -5.7023,0 -7.2087,-2.50647 -16.1994,-26.95238 -7.9139,-21.51829 -14.5945,-35.44805 -17.8311,-37.18024 -6.7483,-3.61159 -12.2087,-0.0985 -12.1459,7.81445 0.02,2.52931 5.396,17.15872 11.9465,32.50982 6.5505,15.3511 11.9099,29.58484 11.9099,31.63052 0,5.42145 -5.2656,9.66045 -12.0001,9.66045 -5.0428,0 -6.6518,-1.05345 -15.5905,-10.20752 z"
     id="path65" />
  <path
     style="opacity:1;fill:#d6e9ff;fill-opacity:1;stroke-width:1.45688"
     d="m 2477.2362,456.47309 c -33.5337,-6.0532 -50.8562,-13.19346 -65.715,-27.08758 -10.079,-9.42457 -17.6411,-23.61086 -19.085,-35.80313 -3.1455,-26.55847 14.4028,-57.22151 39.9826,-69.86374 10.694,-5.28526 11.4005,-5.42676 25.8284,-5.1725 17.2752,0.30443 24.3417,2.51257 40.731,12.72764 13.5141,8.42293 15.767,11.131 26.9362,32.37831 4.9819,9.47703 14.0074,23.72569 20.0567,31.6637 6.0492,7.93801 11.0726,15.42954 11.163,16.64784 0.09,1.21831 -2.0343,3.71848 -4.7215,5.55594 -7.9104,5.40907 -11.5159,3.30124 -43.6103,-25.49565 -17.0864,-15.33081 -21.4242,-17.70805 -27.3694,-14.99922 -2.8601,1.30315 -3.5348,2.69241 -3.5348,7.27862 0,5.49264 0.744,6.33035 24.0387,27.06505 13.2212,11.76833 24.0385,22.33123 24.0385,23.47312 0,4.75927 -6.6922,3.69318 -22.6057,-3.6011 -8.8009,-4.03411 -17.8477,-7.34476 -20.1039,-7.35698 -6.5255,-0.0354 -9.7383,2.42488 -9.7383,7.45737 0,5.76158 6.2658,11.73393 15.9721,15.22428 3.9815,1.43172 9.0642,4.06792 11.295,5.85825 l 4.056,3.25513 -4.1013,1.57399 c -5.136,1.97111 -8.9821,1.84364 -23.513,-0.77934 z"
     id="path66" />
</svg>
