<?xml version="1.0" standalone="no"?>
<!DOCTYPE svg PUBLIC "-//W3C//DTD SVG 20010904//EN"
 "http://www.w3.org/TR/2001/REC-SVG-20010904/DTD/svg10.dtd">
<svg version="1.0" xmlns="http://www.w3.org/2000/svg"
 width="3467.000000pt" height="2264.000000pt" viewBox="0 0 3467.000000 2264.000000"
 preserveAspectRatio="xMidYMid meet">

<g transform="translate(0.000000,2264.000000) scale(0.100000,-0.100000)"
fill="#000000" stroke="none">
<path d="M29065 19502 c-66 -28 -167 -89 -206 -124 -70 -64 -151 -171 -205
-273 -6 -11 -16 -29 -22 -40 -37 -66 -93 -238 -113 -345 -11 -63 -11 -352 1
-425 5 -33 14 -82 20 -110 6 -27 17 -90 25 -140 23 -142 71 -304 148 -500 9
-22 30 -78 47 -125 18 -47 36 -90 41 -96 5 -6 18 -36 28 -67 11 -30 26 -66 34
-79 8 -12 17 -35 21 -49 11 -48 -17 -67 -154 -104 -69 -18 -165 -45 -215 -61
-49 -15 -110 -28 -135 -28 l-45 -1 2 68 c1 37 7 75 12 85 23 43 34 232 28 492
-5 239 -7 269 -26 310 -11 25 -23 66 -27 90 -8 54 -62 171 -121 262 -23 38
-43 71 -43 74 0 12 -88 123 -135 169 -108 109 -223 171 -417 226 -105 30 -302
27 -422 -6 -133 -36 -263 -90 -331 -137 -80 -55 -216 -189 -267 -263 -144
-209 -230 -497 -230 -771 0 -71 1 -142 3 -158 3 -24 -1 -33 -23 -45 -26 -15
-31 -14 -85 15 -62 34 -269 90 -368 99 -105 11 -343 -41 -424 -93 -126 -80
-276 -215 -330 -296 -9 -13 -33 -49 -53 -80 -21 -30 -41 -68 -44 -83 -4 -16
-16 -47 -26 -71 -25 -56 -37 -122 -47 -262 -12 -168 23 -348 87 -457 30 -50
100 -143 126 -168 103 -97 225 -188 305 -229 94 -49 260 -99 436 -132 44 -9
83 -21 87 -27 11 -17 10 -65 -1 -72 -6 -3 -29 -36 -54 -73 -24 -37 -52 -80
-63 -96 -19 -29 -53 -87 -80 -136 -8 -14 -14 -31 -14 -38 0 -8 -9 -27 -21 -43
-12 -17 -27 -51 -35 -77 -21 -74 -54 -173 -75 -224 -32 -80 -54 -256 -55 -448
-1 -191 -8 -222 -63 -265 -34 -26 -270 -269 -290 -298 -8 -12 -31 -41 -50 -63
-20 -23 -53 -76 -75 -118 -44 -87 -44 -125 2 -169 36 -34 76 -50 229 -91 142
-38 233 -53 400 -65 119 -9 170 -29 195 -74 28 -54 156 -203 255 -297 295
-282 660 -437 1178 -500 265 -32 653 -22 915 25 47 8 153 26 235 40 161 27
352 68 425 90 25 7 117 32 205 55 179 46 535 161 756 244 310 116 733 345 990
536 210 156 428 388 562 597 84 132 192 367 212 463 3 19 15 63 25 96 30 100
53 324 46 439 -4 55 -11 163 -16 240 -6 104 -14 152 -29 185 -11 25 -23 74
-27 110 -4 36 -15 81 -24 100 -10 19 -22 58 -28 86 -6 28 -23 73 -37 99 -14
27 -25 54 -25 61 0 12 -11 39 -64 154 -9 19 -20 42 -25 50 -5 8 -16 31 -25 50
-8 19 -26 51 -38 71 -13 19 -33 51 -45 70 -112 177 -320 408 -463 514 -57 43
-304 195 -317 195 -2 0 -23 8 -46 19 -87 39 -316 121 -337 121 -9 0 -25 9 -35
20 -17 18 -18 36 -12 218 4 135 11 214 22 250 9 29 22 88 30 131 7 43 23 96
34 117 12 21 21 45 21 53 0 8 14 43 30 78 17 34 30 69 30 76 0 6 9 26 20 42
11 17 30 48 41 70 37 73 57 107 78 129 12 12 21 26 21 30 0 12 47 70 110 135
63 65 213 185 280 224 61 35 219 85 307 98 172 24 335 -50 414 -187 34 -60 89
-229 89 -275 0 -15 -14 -64 -31 -108 -25 -65 -42 -93 -88 -140 -32 -32 -83
-70 -115 -86 -50 -24 -65 -27 -122 -22 -159 12 -269 134 -174 191 16 9 43 28
60 42 26 23 30 32 30 78 0 45 -4 56 -30 81 -23 22 -41 29 -84 33 -70 6 -114
-10 -158 -56 -62 -64 -88 -124 -88 -206 0 -81 23 -140 88 -228 48 -65 62 -77
132 -118 76 -45 142 -63 230 -63 131 0 256 58 367 170 67 67 98 111 150 213
l33 65 0 160 c0 138 -3 166 -20 204 -11 24 -20 47 -20 52 0 37 -102 198 -166
264 -45 46 -153 113 -234 146 -48 19 -73 22 -195 22 -158 0 -194 -8 -369 -80
-129 -53 -129 -53 -226 -122 -126 -92 -285 -262 -376 -404 -26 -39 -54 -83
-64 -97 -30 -44 -90 -166 -90 -183 0 -9 -11 -40 -24 -69 -39 -87 -65 -160 -76
-218 -7 -30 -20 -81 -31 -114 -21 -63 -44 -208 -62 -404 -16 -171 -2 -162
-261 -163 -110 0 -262 -6 -336 -13 -74 -7 -150 -9 -168 -5 -38 8 -78 42 -88
73 -4 12 -15 34 -26 49 -11 15 -24 44 -30 65 -6 20 -18 49 -28 63 -10 14 -22
38 -26 55 -4 16 -17 49 -29 74 -12 25 -26 61 -30 80 -4 19 -15 51 -25 70 -9
19 -20 53 -24 75 -4 22 -18 68 -32 102 -13 34 -24 75 -24 91 0 16 -9 55 -20
88 -13 37 -24 108 -31 189 -5 72 -14 155 -20 185 -7 40 -5 105 7 240 14 157
21 196 46 259 35 91 67 143 138 229 68 84 82 96 151 131 158 83 314 84 469 5
112 -58 157 -111 217 -257 24 -59 35 -104 39 -162 8 -99 -3 -127 -79 -211 -45
-49 -69 -66 -128 -90 -170 -68 -319 -15 -319 112 0 47 23 82 75 114 74 46 93
143 40 196 -95 94 -344 -120 -338 -291 4 -116 89 -277 176 -332 123 -78 336
-74 499 8 69 35 184 142 213 199 10 19 26 46 36 60 9 14 25 69 34 122 15 90
15 104 1 190 -19 109 -61 214 -129 318 -80 123 -147 181 -286 250 l-60 30
-218 -1 c-181 0 -225 -3 -258 -17z m-1435 -1026 c123 -36 323 -200 336 -275 4
-20 22 -74 41 -121 42 -100 59 -157 84 -263 10 -49 26 -88 39 -102 13 -13 26
-43 31 -67 14 -74 11 -333 -6 -401 -8 -34 -19 -102 -26 -152 -23 -185 -77
-292 -169 -332 -19 -8 -62 -24 -94 -34 -51 -16 -63 -16 -91 -5 -31 13 -32 15
-38 97 -4 46 -7 140 -7 209 0 121 -8 219 -30 365 -6 39 -13 98 -17 133 -5 56
-9 65 -34 77 -41 22 -57 19 -91 -16 l-31 -30 6 -117 c4 -64 14 -175 22 -247
22 -187 38 -552 24 -577 -25 -46 -118 -58 -152 -20 -15 18 -63 126 -91 207
-10 28 -28 79 -41 115 -12 36 -29 79 -37 95 -24 47 -65 137 -77 168 -14 36
-70 61 -105 47 -30 -11 -46 -39 -46 -81 0 -32 84 -244 101 -255 5 -3 9 -13 9
-22 0 -10 9 -34 20 -55 11 -21 32 -68 45 -104 14 -37 29 -71 34 -77 13 -17 41
-107 41 -133 0 -81 -128 -134 -204 -84 -41 27 -197 191 -210 221 -6 14 -29 52
-51 85 -84 128 -156 291 -175 394 -6 32 -18 83 -28 113 -23 73 -23 374 1 503
50 273 166 474 358 617 64 48 184 97 304 125 117 26 265 26 355 -1z m-1601
-1291 c44 -10 107 -38 176 -76 199 -111 231 -144 334 -355 90 -183 137 -254
253 -390 43 -51 78 -101 78 -112 0 -25 -72 -80 -116 -88 -51 -9 -122 37 -299
196 -38 35 -106 95 -149 134 -43 39 -85 77 -92 83 -35 35 -107 38 -139 6 -9
-8 -15 -33 -15 -59 0 -49 6 -56 116 -144 30 -25 100 -86 155 -137 54 -50 126
-113 159 -139 80 -63 82 -111 4 -120 -33 -5 -58 5 -176 65 -169 86 -238 99
-283 55 -26 -26 -19 -86 13 -116 30 -29 106 -69 167 -88 48 -15 105 -56 105
-75 0 -33 -46 -47 -132 -42 -82 5 -119 11 -268 43 -199 42 -280 71 -410 148
-147 86 -241 201 -291 356 -29 88 -31 103 -26 200 6 131 37 234 106 345 102
166 255 280 426 318 50 11 241 6 304 -8z m3846 -283 l40 -7 23 -130 c12 -72
31 -146 40 -165 56 -115 227 -102 262 20 7 24 5 54 -5 104 -22 103 -21 110 13
101 15 -3 72 -24 127 -46 508 -198 884 -669 1045 -1309 79 -316 81 -652 4
-918 -157 -543 -601 -988 -1314 -1318 -174 -81 -496 -204 -532 -204 -33 0
-207 105 -340 205 -462 345 -855 880 -1022 1390 -185 567 -180 1269 14 1829
70 203 52 185 248 250 165 55 464 136 501 136 12 0 33 -23 61 -67 74 -119 205
-286 286 -364 65 -63 87 -78 121 -84 82 -13 163 54 163 137 0 53 -10 69 -104
169 -73 77 -177 213 -192 253 -5 12 5 16 48 19 99 6 473 6 513 -1z m-2269
-622 c-35 -109 -72 -297 -92 -461 -20 -166 -23 -533 -5 -714 54 -552 193 -939
505 -1405 226 -337 534 -660 794 -832 34 -23 59 -45 55 -49 -21 -20 -566 -122
-722 -135 l-76 -6 -80 57 c-360 258 -738 722 -955 1170 -107 222 -173 452
-217 765 -14 99 -18 192 -17 445 0 281 3 337 22 463 22 139 72 355 91 391 14
26 303 194 520 303 107 54 197 96 199 94 2 -2 -8 -41 -22 -86z m-1309 -862
c-4 -29 -17 -91 -27 -138 -32 -148 -44 -269 -43 -470 0 -127 6 -239 17 -320
67 -496 267 -969 566 -1339 94 -115 290 -311 380 -379 36 -27 72 -57 80 -66
13 -17 10 -18 -45 -11 -68 7 -265 63 -373 106 -342 136 -612 371 -784 685 -94
170 -169 376 -209 570 -26 127 -36 369 -20 487 35 258 133 501 294 727 66 92
156 200 167 200 3 0 2 -24 -3 -52z"/>
<path d="M30275 16026 c-88 -39 -102 -104 -55 -251 49 -153 92 -241 132 -265
72 -45 175 -5 197 78 12 42 -11 137 -68 285 -42 106 -65 138 -114 156 -36 14
-55 13 -92 -3z"/>
<path d="M28953 15560 c-38 -23 -63 -67 -63 -109 0 -34 48 -192 87 -286 43
-103 106 -147 183 -125 80 23 110 91 84 192 -21 84 -81 245 -106 286 -37 61
-122 81 -185 42z"/>
<path d="M30940 15515 c-107 -38 -144 -70 -155 -136 -13 -78 56 -159 136 -159
52 0 202 56 233 87 14 14 31 43 38 65 10 33 9 46 -8 86 -15 38 -28 52 -64 70
-57 28 -66 28 -180 -13z"/>
<path d="M30273 15100 c-41 -25 -59 -53 -73 -113 -24 -111 -72 -175 -164 -218
-120 -57 -225 -48 -326 28 -72 54 -111 66 -161 53 -45 -13 -96 -67 -104 -114
-10 -53 22 -113 86 -162 113 -87 221 -124 359 -124 269 0 502 171 574 421 23
78 23 141 -1 181 -36 63 -127 87 -190 48z"/>
<path d="M28772 14758 c-48 -18 -96 -43 -112 -60 -77 -77 -31 -213 80 -233 37
-6 188 39 236 70 77 50 72 186 -9 235 -45 28 -97 24 -195 -12z"/>
<path d="M18625 19202 c-26 -3 -92 -21 -204 -54 -68 -20 -315 -139 -385 -185
-94 -63 -237 -183 -272 -228 -32 -42 -43 -119 -24 -165 22 -53 106 -89 167
-71 17 5 73 45 123 90 154 136 311 220 555 296 88 28 128 46 154 71 35 31 36
35 36 103 0 65 -2 73 -30 101 -34 33 -74 47 -120 42z"/>
<path d="M19450 19157 c-42 -16 -89 -93 -90 -147 0 -66 28 -94 155 -154 201
-95 332 -205 472 -394 93 -125 126 -148 196 -139 83 11 130 71 125 157 -3 48
-11 67 -57 133 -157 227 -353 397 -586 509 -95 45 -158 56 -215 35z"/>
<path d="M17400 17989 c-19 -12 -40 -29 -46 -37 -7 -9 -23 -79 -37 -157 -31
-165 -41 -420 -29 -688 7 -144 11 -171 28 -194 38 -50 71 -68 129 -68 61 0 98
21 129 75 18 31 19 42 7 244 -13 237 -5 416 29 601 23 131 17 168 -35 214 -30
26 -44 31 -88 31 -35 0 -63 -7 -87 -21z"/>
<path d="M20380 17767 c-22 -8 -45 -28 -65 -57 -33 -50 -35 -67 -20 -245 5
-68 4 -123 -4 -169 -6 -37 -16 -128 -21 -202 -6 -83 -18 -157 -29 -192 -59
-175 -25 -272 97 -279 64 -5 107 15 138 62 22 34 58 185 85 360 18 114 23 185
23 380 1 218 -1 244 -18 279 -34 68 -103 92 -186 63z"/>
<path d="M10864 16802 c-98 -8 -122 -23 -153 -96 -30 -71 -24 -110 25 -157
l35 -34 232 0 c263 0 340 -12 553 -86 63 -21 129 -39 147 -39 96 0 173 111
138 202 -28 75 -146 125 -425 183 -130 27 -393 39 -552 27z"/>
<path d="M10025 16371 c-22 -10 -56 -40 -75 -65 -19 -26 -45 -60 -57 -75 -13
-16 -23 -33 -23 -38 0 -6 -13 -30 -30 -54 -16 -24 -30 -52 -30 -61 0 -9 -11
-30 -25 -46 -14 -17 -25 -41 -25 -54 0 -13 -9 -40 -20 -61 -11 -21 -27 -66
-35 -100 -8 -35 -21 -77 -30 -94 -15 -30 -36 -194 -38 -304 -2 -67 19 -104 71
-126 67 -28 154 3 187 67 8 15 19 58 25 96 39 255 114 455 236 632 54 77 68
106 72 143 11 117 -97 191 -203 140z"/>
<path d="M17633 16270 c-72 -16 -123 -76 -123 -143 0 -21 11 -64 25 -97 14
-33 25 -64 25 -71 0 -12 48 -128 85 -205 14 -28 25 -56 25 -62 0 -7 22 -51 49
-99 26 -49 52 -99 56 -113 4 -14 18 -41 31 -60 13 -19 24 -40 24 -47 0 -6 10
-24 23 -40 12 -15 30 -45 40 -66 46 -101 197 -104 257 -5 32 53 26 105 -20
190 -85 153 -231 459 -290 608 -34 85 -69 163 -78 173 -32 35 -79 49 -129 37z"/>
<path d="M12362 16163 c-40 -19 -57 -45 -66 -95 -12 -68 3 -116 56 -177 63
-71 154 -190 195 -256 17 -27 43 -69 57 -91 14 -23 26 -47 26 -54 0 -7 10 -29
22 -49 22 -35 36 -68 80 -194 27 -75 63 -102 135 -102 78 0 139 54 150 131 10
74 -115 363 -239 555 -74 115 -182 251 -242 307 -40 37 -51 42 -93 42 -27 0
-63 -8 -81 -17z"/>
<path d="M19945 16075 c-40 -27 -85 -82 -116 -140 -14 -28 -27 -48 -99 -155
-14 -20 -34 -50 -45 -67 -37 -55 -70 -94 -194 -231 -68 -75 -130 -151 -137
-169 -17 -40 -18 -110 -1 -143 29 -58 137 -78 198 -37 41 28 193 196 305 338
110 140 267 375 289 432 23 60 14 108 -29 154 -27 29 -41 36 -82 40 -41 4 -56
0 -89 -22z"/>
<path d="M18717 14790 c-60 -37 -73 -40 -149 -43 -115 -5 -132 -15 -165 -99
-34 -87 -62 -111 -246 -207 -198 -103 -213 -114 -226 -166 -30 -118 16 -195
117 -195 49 0 109 28 347 164 88 50 163 91 167 91 4 0 90 -79 190 -176 311
-300 352 -330 425 -313 77 18 123 75 123 154 0 58 -19 88 -97 154 -102 87
-330 303 -352 335 l-20 28 44 32 c49 35 64 57 76 109 10 48 -8 102 -48 139
-50 48 -98 46 -186 -7z"/>
<path d="M9845 14710 c-16 -5 -43 -21 -60 -34 -29 -23 -30 -26 -30 -113 0 -88
0 -88 53 -183 81 -146 198 -294 345 -436 161 -157 214 -194 275 -194 93 0 156
61 156 150 0 63 -21 92 -129 182 -194 163 -299 295 -449 570 -28 52 -98 77
-161 58z"/>
<path d="M12887 14538 c-16 -11 -41 -48 -57 -82 -24 -52 -30 -80 -38 -191 -6
-84 -15 -142 -25 -162 -9 -16 -21 -58 -26 -91 -5 -33 -16 -71 -24 -84 -8 -13
-20 -45 -25 -73 -6 -27 -31 -94 -56 -148 -55 -118 -64 -162 -42 -205 37 -72
116 -98 191 -62 53 26 70 51 128 200 91 232 149 449 182 679 16 105 16 116 0
157 -24 63 -55 84 -124 84 -41 -1 -64 -6 -84 -22z"/>
<path d="M17130 13966 c-52 -19 -126 -47 -165 -64 -38 -16 -101 -40 -140 -52
-38 -12 -135 -44 -215 -70 -80 -26 -171 -55 -203 -64 -48 -15 -64 -25 -97 -67
-59 -75 -52 -142 20 -203 49 -41 97 -36 320 38 231 75 596 209 661 242 75 37
107 122 75 198 -35 84 -103 95 -256 42z"/>
<path d="M11176 13615 c-22 -8 -55 -30 -74 -49 -30 -29 -36 -43 -40 -88 -4
-48 -1 -58 23 -86 15 -18 40 -39 55 -47 164 -85 855 -267 947 -250 44 8 99 57
113 101 21 63 -6 141 -59 168 -30 15 -272 76 -401 101 -19 4 -141 43 -271 86
-130 43 -240 79 -245 79 -5 -1 -27 -7 -48 -15z"/>
<path d="M19825 13620 c-11 -4 -37 -26 -58 -49 -30 -33 -37 -49 -37 -82 0 -89
41 -123 322 -262 279 -138 556 -247 626 -247 129 0 197 153 108 246 -22 23
-64 45 -141 74 -179 69 -400 169 -557 252 -126 67 -153 78 -195 77 -26 0 -57
-4 -68 -9z"/>
<path d="M15510 13479 c-19 -4 -75 -15 -125 -24 -104 -18 -181 -33 -355 -68
-69 -14 -159 -28 -200 -32 -110 -10 -201 -33 -227 -57 -32 -30 -48 -111 -34
-166 18 -66 55 -85 156 -79 132 8 680 100 850 143 90 22 135 74 135 156 0 105
-82 157 -200 127z"/>
<path d="M12938 13270 c-26 -5 -67 -22 -92 -39 -41 -28 -45 -35 -51 -83 -7
-60 2 -93 36 -125 48 -44 63 -46 540 -51 443 -4 457 -4 502 16 59 26 87 70 87
135 0 26 -7 61 -15 77 -30 57 -32 57 -495 63 -234 2 -434 7 -445 10 -11 3 -41
1 -67 -3z"/>
<path d="M24115 13244 c-139 -34 -228 -54 -265 -60 -25 -3 -88 -19 -140 -34
-117 -34 -287 -70 -333 -70 -19 0 -65 -9 -101 -20 -58 -18 -68 -25 -91 -64
-30 -52 -31 -87 -2 -146 41 -84 79 -87 362 -29 215 43 323 69 535 127 118 32
139 41 171 73 56 56 62 135 15 194 -19 24 -31 29 -77 31 -30 1 -63 1 -74 -2z"/>
<path d="M21456 13019 c-41 -35 -58 -86 -49 -144 8 -57 19 -72 61 -94 66 -33
399 -68 738 -78 213 -6 223 -5 266 15 51 25 88 81 88 133 0 44 -29 101 -58
115 -13 6 -103 14 -200 18 -254 10 -421 24 -551 46 -62 11 -147 20 -187 20
-68 0 -76 -2 -108 -31z"/>
<path d="M12230 12944 c-37 -16 -90 -61 -90 -77 0 -5 -12 -24 -27 -42 -16 -18
-39 -50 -53 -70 -56 -81 -288 -345 -410 -465 -98 -97 -113 -174 -47 -246 37
-41 93 -53 150 -35 65 22 376 359 580 628 106 140 115 170 77 248 -34 70 -103
93 -180 59z"/>
<path d="M3474 12346 c-91 -40 -106 -179 -28 -252 167 -158 667 -519 755 -546
52 -15 103 -3 143 35 55 53 65 124 27 196 -7 12 -78 64 -159 117 -167 109
-365 256 -497 369 -49 42 -100 81 -113 86 -33 13 -92 11 -128 -5z"/>
<path d="M10950 11747 c-30 -13 -95 -45 -145 -71 -238 -128 -462 -236 -519
-250 -43 -11 -154 -67 -182 -92 -21 -21 -24 -31 -24 -99 0 -71 2 -79 28 -105
36 -35 90 -47 145 -30 132 39 577 250 757 358 79 48 99 64 118 102 46 90 2
188 -94 205 -18 3 -49 -3 -84 -18z"/>
<path d="M5006 11429 c-29 -5 -50 -18 -78 -47 -34 -37 -38 -46 -38 -96 0 -86
29 -113 193 -177 222 -87 671 -230 766 -245 87 -13 180 82 166 170 -7 47 -37
91 -73 110 -15 8 -79 28 -142 44 -130 35 -487 155 -600 202 -91 38 -142 48
-194 39z"/>
<path d="M9215 11089 c-71 -15 -179 -36 -240 -45 -289 -43 -326 -49 -471 -76
-69 -12 -131 -53 -145 -96 -26 -78 13 -158 89 -183 37 -12 102 -6 362 32 274
40 597 108 637 134 86 57 82 204 -6 250 -40 20 -72 18 -226 -16z"/>
<path d="M6662 10960 c-40 -25 -52 -54 -52 -131 0 -70 10 -93 49 -114 56 -29
579 -75 850 -75 128 0 150 3 179 20 100 61 95 223 -8 256 -19 6 -168 17 -330
24 -162 6 -331 18 -375 26 -44 8 -125 14 -180 14 -82 0 -106 -4 -133 -20z"/>
<path d="M17549 8801 c-123 -38 -193 -151 -193 -311 0 -160 81 -293 195 -320
105 -25 215 8 272 83 48 63 67 132 67 240 0 209 -86 318 -250 316 -36 0 -77
-4 -91 -8z"/>
<path d="M12760 7704 c-161 -23 -339 -73 -434 -121 -168 -85 -337 -228 -454
-382 -102 -135 -115 -158 -192 -339 -99 -232 -118 -615 -46 -890 23 -85 119
-307 160 -367 112 -163 213 -271 341 -365 148 -107 299 -173 494 -216 252 -56
616 -8 811 106 99 58 187 82 209 57 10 -13 13 -151 14 -659 2 -612 1 -644 -16
-661 -22 -22 -58 -17 -97 13 -105 82 -237 160 -345 204 -38 15 -90 36 -115 46
-114 48 -346 90 -494 90 -129 0 -228 -56 -277 -156 -33 -69 -30 -178 6 -240
32 -55 47 -70 104 -108 40 -26 54 -29 150 -33 344 -14 665 -178 865 -443 134
-177 208 -377 225 -605 6 -77 16 -146 26 -170 20 -48 78 -111 123 -132 18 -9
37 -24 43 -34 13 -25 110 -27 130 -3 7 8 37 32 67 51 34 23 67 57 89 90 32 50
34 60 43 178 4 68 11 129 14 134 3 5 13 47 22 93 8 45 20 87 25 93 5 5 9 16 9
25 0 35 105 219 175 306 75 94 207 209 288 254 111 60 173 90 188 90 10 0 20
4 24 9 3 5 31 15 63 21 31 6 84 17 117 25 33 8 105 17 159 20 90 5 105 9 155
40 66 40 89 69 120 151 26 70 23 109 -14 190 -30 65 -90 116 -163 140 -55 17
-64 17 -222 1 -175 -18 -296 -46 -423 -96 -132 -52 -284 -136 -400 -217 -51
-37 -82 -42 -113 -20 -19 14 -19 44 -19 1808 -1 1242 -4 1806 -12 1835 -21 85
-121 174 -210 189 -98 15 -213 -47 -268 -145 -43 -78 -67 -84 -158 -36 -143
74 -164 83 -285 123 -67 23 -159 46 -204 52 -78 9 -243 12 -298 4z m334 -571
c140 -46 247 -118 383 -263 40 -42 73 -89 93 -135 18 -38 41 -88 51 -110 32
-68 41 -150 37 -325 -4 -153 -6 -170 -32 -234 -64 -156 -139 -256 -279 -369
-100 -81 -126 -96 -225 -133 -166 -63 -414 -42 -582 48 -189 102 -355 314
-411 522 -32 120 -32 321 0 431 13 43 32 95 42 114 11 20 19 39 19 43 0 4 14
27 30 50 17 24 38 54 47 68 48 74 186 191 283 242 168 89 370 108 544 51z"/>
<path d="M14853 7692 c-99 -35 -153 -92 -178 -188 -22 -87 -22 -1270 1 -1487
23 -228 93 -413 218 -577 59 -79 87 -108 187 -195 68 -60 174 -120 334 -190
137 -60 400 -74 585 -31 167 39 264 80 388 163 186 125 309 272 412 492 17 35
30 69 30 75 1 6 8 29 16 51 44 120 47 176 51 923 3 505 1 729 -7 768 -13 64
-56 125 -119 169 -38 27 -51 30 -114 30 -85 0 -131 -19 -189 -79 -75 -79 -73
-59 -69 -856 3 -702 3 -706 -19 -785 -30 -111 -85 -199 -176 -284 -179 -167
-409 -213 -649 -129 -33 12 -67 27 -75 33 -8 7 -28 20 -45 28 -68 36 -181 168
-218 257 -55 133 -52 71 -55 893 l-3 758 -28 45 c-73 114 -169 154 -278 116z"/>
<path d="M22090 7700 c-132 -16 -342 -75 -439 -125 -353 -178 -617 -521 -706
-916 -26 -110 -29 -143 -29 -299 0 -173 6 -223 48 -400 25 -105 106 -287 166
-371 17 -24 41 -60 54 -80 65 -97 316 -318 395 -347 9 -3 27 -13 41 -21 13 -9
38 -21 55 -27 16 -6 64 -25 105 -42 132 -53 221 -67 440 -67 252 0 378 21 555
92 181 73 377 210 441 308 16 24 21 146 8 187 -3 13 -21 41 -39 63 -34 43
-104 75 -161 75 -57 0 -139 -32 -219 -86 -44 -29 -108 -65 -142 -79 -75 -30
-279 -65 -381 -65 -76 0 -262 38 -330 67 -99 43 -152 71 -204 110 -67 52 -174
166 -194 208 -7 16 -18 37 -23 45 -28 42 -55 121 -59 171 -4 56 -4 56 28 68
24 8 282 11 914 11 991 0 940 -4 1022 75 45 43 74 116 74 186 0 102 -57 360
-101 455 -11 22 -19 46 -19 53 0 7 -8 25 -18 39 -10 15 -21 34 -24 43 -19 51
-128 201 -211 289 -254 270 -676 423 -1047 380z m225 -470 c163 -38 174 -42
305 -103 124 -58 319 -222 355 -298 8 -19 33 -63 55 -99 21 -36 39 -75 39 -86
2 -50 23 -49 -807 -49 -509 0 -783 4 -796 10 -16 8 -22 22 -24 55 -3 37 5 61
45 140 40 78 65 112 143 191 52 53 113 106 135 118 22 12 47 25 55 30 59 36
145 66 260 91 50 11 188 11 235 0z"/>
<path d="M17557 7684 c-66 -20 -150 -102 -169 -164 -19 -65 -19 -2271 0 -2344
27 -103 125 -176 234 -176 126 0 218 74 252 202 16 57 17 163 14 1168 -3 1060
-4 1107 -22 1158 -35 96 -134 172 -221 171 -22 0 -62 -7 -88 -15z"/>
<path d="M25124 7684 c-101 -17 -259 -67 -339 -107 -68 -34 -153 -86 -175
-108 -51 -50 -105 -63 -132 -31 -9 9 -19 35 -23 57 -12 72 -69 144 -137 175
-124 56 -286 -7 -347 -133 -19 -41 -20 -66 -23 -742 -2 -385 -1 -912 2 -1172
l5 -471 30 -44 c17 -23 53 -58 80 -75 45 -30 57 -33 125 -33 110 0 183 42 237
137 l28 48 5 575 c6 632 1 577 65 717 8 17 15 37 15 45 0 8 4 18 9 23 5 6 26
42 46 80 21 39 56 97 78 130 23 33 53 78 68 100 33 48 158 168 220 210 108 73
191 101 378 124 99 13 132 34 193 126 34 52 43 111 28 189 -10 52 -19 71 -56
110 -78 85 -182 104 -380 70z"/>
<path d="M18547 7656 c-93 -34 -171 -117 -183 -193 -10 -69 1 -159 26 -200 11
-20 27 -52 34 -72 22 -60 165 -403 185 -446 28 -58 78 -176 86 -205 4 -14 15
-41 25 -60 10 -19 30 -69 45 -110 15 -41 41 -103 56 -137 16 -34 29 -65 29
-69 0 -7 65 -158 81 -186 5 -10 27 -64 50 -120 22 -57 63 -153 90 -214 27 -61
49 -117 49 -124 0 -7 13 -43 29 -79 43 -100 72 -172 83 -211 11 -39 63 -123
99 -162 48 -51 88 -68 167 -68 84 0 121 16 176 76 35 38 96 150 96 176 0 8 6
22 14 33 7 11 26 52 41 90 15 39 33 84 40 100 8 17 28 64 45 105 17 41 37 87
45 102 8 14 15 32 15 40 0 7 7 26 16 43 8 16 29 63 45 105 17 41 37 85 45 97
8 12 14 28 14 34 0 11 26 70 66 152 8 16 14 34 14 40 0 9 59 150 105 252 7 17
37 84 65 150 28 66 58 134 66 152 8 17 14 36 14 43 0 6 9 28 20 48 11 20 38
82 60 137 23 55 50 117 61 137 10 20 19 43 19 50 0 7 7 27 16 43 32 60 57 142
61 202 4 54 1 68 -23 110 -40 71 -53 83 -119 114 -73 35 -123 37 -190 5 -82
-37 -145 -136 -222 -341 -8 -22 -23 -58 -33 -80 -57 -124 -72 -159 -104 -245
-20 -52 -45 -113 -55 -135 -40 -82 -81 -178 -81 -187 0 -6 -23 -58 -51 -117
-29 -58 -57 -122 -65 -141 -7 -19 -28 -73 -48 -119 -19 -46 -42 -107 -51 -136
-18 -62 -62 -145 -81 -152 -37 -14 -94 37 -94 82 0 8 -27 72 -60 141 -33 69
-60 131 -60 137 0 7 -9 29 -20 50 -11 20 -20 42 -20 48 0 7 -9 30 -19 53 -11
23 -41 91 -66 151 -25 61 -52 124 -59 140 -8 17 -26 57 -39 90 -76 184 -110
264 -128 301 -10 23 -19 45 -19 49 0 4 -15 39 -34 78 -18 40 -48 107 -65 151
-17 43 -45 96 -61 117 -61 76 -166 113 -243 85z"/>
</g>
</svg>
